<?xml version="1.0" encoding="utf-8"?>
<COLLADA xmlns="http://www.collada.org/2005/11/COLLADASchema" version="1.4.1" xmlns:xsi="http://www.w3.org/2001/XMLSchema-instance">
  <asset>
    <contributor>
      <author>Blender User</author>
      <authoring_tool>Blender 4.1.1 commit date:2024-04-15, commit time:15:11, hash:e1743a0317bc</authoring_tool>
    </contributor>
    <created>2024-08-11T18:44:26</created>
    <modified>2024-08-11T18:44:26</modified>
    <unit name="meter" meter="1"/>
    <up_axis>Z_UP</up_axis>
  </asset>
  <library_effects>
    <effect id="Material-effect">
      <profile_COMMON>
        <technique sid="common">
          <lambert>
            <emission>
              <color sid="emission">0 0 0 1</color>
            </emission>
            <diffuse>
              <color sid="diffuse">0.8 0.8 0.8 1</color>
            </diffuse>
            <index_of_refraction>
              <float sid="ior">1.45</float>
            </index_of_refraction>
          </lambert>
        </technique>
      </profile_COMMON>
    </effect>
  </library_effects>
  <library_images/>
  <library_materials>
    <material id="Material-material" name="Material">
      <instance_effect url="#Material-effect"/>
    </material>
  </library_materials>
  <library_geometries>
    <geometry id="Cube-mesh" name="Cube">
      <mesh>
        <source id="Cube-mesh-positions">
          <float_array id="Cube-mesh-positions-array" count="558">1.472702 4.175232 -6.415525 1.472702 1.509168 -6.518724 1 3.767862 7.497935 1 0.5552845 7.449616 -1.472702 4.175232 -6.415525 -1.472702 1.509168 -6.518724 -1 3.767862 7.497935 -1 0.5552845 7.449616 -1 1.077916 2.168005 0 0.5383471 -6.533325 2.340718 2.891564 -6.497932 -1 2.767975 7.482897 1 2.767975 7.482897 -2.340718 2.891564 -6.497932 0 3.767862 7.497935 1 4.154204 0.7462412 0 0.5552845 7.449616 -1 4.154204 0.7462412 0 5.787189 -6.391282 1 1.077916 2.168005 0 2.952158 -10.52672 1.868016 2.847512 2.194621 0 1.077916 2.168005 -1.868016 2.847512 2.194621 0 2.783565 6.446367 0 4.699852 0.7544479 -1 0.5628039 6.949674 -0.9727019 1.509168 -6.518724 2.340718 2.391621 -6.505452 -1 3.267918 7.490416 1 1.425768 7.46271 -2.340718 2.391621 -6.505452 -0.5 3.767862 7.497935 1 3.775381 6.997992 0.5 0.5552845 7.449616 -1.472702 4.167713 -5.915582 0.9727018 5.098641 -6.401637 1 1.085435 1.668062 -1 1.085435 1.668062 0.9727018 1.509168 -6.518724 2.340718 3.391508 -6.490413 -1 1.425768 7.46271 1 3.267918 7.490416 -2.340718 3.391508 -6.490413 0.5 3.767862 7.497935 1.472702 4.167713 -5.915582 -0.5 0.5552845 7.449616 -1 3.775381 6.997992 -0.9727019 5.098641 -6.401637 1 0.5628039 6.949674 0.7586677 3.087395 -19.51826 -0.7586677 3.087395 -19.51826 0 1.61663 -19.54038 0 4.633325 -19.49501 1 2.775494 6.982954 1.868016 2.855032 1.694677 1.868016 2.347569 2.187102 1.868016 3.347456 2.20214 0 0.5628039 6.949674 0 1.085435 1.668062 -0.5 1.077916 2.168005 0.5 1.077916 2.168005 -1.868016 2.855032 1.694677 -1 2.775494 6.982954 -1.868016 2.347569 2.187102 -1.868016 3.347456 2.20214 -0.9187834 2.783565 6.446367 0.9438714 2.783565 6.446367 0 1.119655 6.421341 0 3.348467 6.454864 0 3.775381 6.997992 0 5.085132 0.260186 0.5 4.699852 0.7544479 -0.5 4.699852 0.7544479 -0.9727019 5.091122 -5.901694 0.9727018 5.091122 -5.901694 0.5 3.775381 6.997992 0.9438714 3.348467 6.454864 0.9438714 1.119655 6.421341 -0.9187834 1.119655 6.421341 -1 3.275438 6.990473 -1 1.433287 6.962766 -1.868016 2.355088 1.687158 0.5 1.085435 1.668062 -0.5 1.085435 1.668062 -0.5 0.5628039 6.949674 1.868016 3.354975 1.702196 1.868016 2.355088 1.687158 1 1.433287 6.962766 -0.7586677 3.587337 -19.51074 -0.7586677 2.587451 -19.52578 0.7586677 2.587451 -19.52578 0.7586677 3.587337 -19.51074 1 3.275438 6.990473 0.5 0.5628039 6.949674 -1.868016 3.354975 1.702196 -0.9187834 3.348467 6.454864 -0.5 3.775381 6.997992 -1.472702 4.171473 -6.165554 -1 3.964793 3.872117 -1 4.157964 0.4962694 -1.506284 3.593329 -6.455827 -1.033582 3.560789 1.471332 -1.434008 3.311447 4.596306 -1 3.525409 6.994232 -2.340718 3.376237 -5.475048 -1.868016 3.351215 1.952168 -1.033582 3.568309 0.9713887 -1.033582 3.564549 1.221361 -1.250586 3.448078 4.231353 -1.033582 3.577824 0.3387207 1 4.157964 0.4962694 1 3.964793 3.872117 1.506284 3.593329 -6.455827 1.472702 4.171473 -6.165554 1.033582 3.560789 1.471332 1.868016 3.351215 1.952168 2.340718 3.376237 -5.475048 1.033582 3.568309 0.9713887 1.434008 3.311447 4.596306 1 3.525409 6.994232 1.250586 3.448078 4.231353 1.033582 3.577824 0.3387207 1.033582 3.564549 1.221361 -1 0.559044 7.199645 -1.90671 2.263985 -6.507371 -1 1.081676 1.918033 -0.75 1.077916 2.168005 -1.374113 1.994784 2.181796 -1 0.8203598 4.55884 -1.236351 1.297302 -2.425331 -1 0.9905264 7.456162 -0.75 0.5552845 7.449616 -1.434008 1.890428 4.574934 -1 1.429528 7.212738 -1 0.9980452 6.95622 -2.104367 2.373354 -2.409147 -1.868016 2.351329 1.937129 -1.374113 2.002303 1.681852 -0.5 1.081676 1.918033 -0.75 1.085435 1.668062 -0.5 0.559044 7.199645 -0.5 0.8203598 4.55884 -0.75 0.5628039 6.949674 -0.75 0.8203598 4.55884 -0.75 0.559044 7.199645 -0.75 1.081676 1.918033 -1.374113 1.998543 1.931823 -1.137762 2.117369 -2.412997 -1 0.9942858 7.206192 -1.217004 1.355394 4.566886 1.90671 2.263985 -6.507371 1 0.9905264 7.456162 1.236351 1.297302 -2.425331 1 0.8203598 4.55884 1.374113 1.994784 2.181796 1 1.081676 1.918033 1 0.559044 7.199645 1.868016 2.351329 1.937129 2.104367 2.373354 -2.409147 1.374113 2.002303 1.681852 1 1.429528 7.212738 1.434008 1.890428 4.574934 1 0.9980452 6.95622 0.75 0.5628039 6.949674 1.217004 1.355394 4.566886 1 0.9942858 7.206192 1.137762 2.117369 -2.412997 1.374113 1.998543 1.931823 -0.7760075 2.979722 -12.35939 0 3.962415 -12.34461 0.7760075 2.979722 -12.35939 0 1.598133 -12.38017 -0.4863509 4.274142 -19.50041 -0.7586677 3.337366 -19.5145 -0.4863509 2.102039 -19.53308 -0.7586677 2.837422 -19.52202 0.4863509 2.102039 -19.53308 0.7586677 2.837422 -19.52202 0.4863509 4.274142 -19.50041 0.7586677 3.337366 -19.5145 0.6468965 3.756634 -12.3477 0.7176272 2.487046 -12.3668 -0.6468965 3.756634 -12.3477 -0.7176272 2.487046 -12.3668 0 4.774038 -11.40238</float_array>
          <technique_common>
            <accessor source="#Cube-mesh-positions-array" count="186" stride="3">
              <param name="X" type="float"/>
              <param name="Y" type="float"/>
              <param name="Z" type="float"/>
            </accessor>
          </technique_common>
        </source>
        <source id="Cube-mesh-normals">
          <float_array id="Cube-mesh-normals-array" count="1104">0 0.9998869 0.01503753 0.7070638 -0.7071495 4.49313e-4 -0.9973196 0.02306735 0.0694369 0 -0.9998869 -0.01503944 1 0 0 0.9964752 0.06146144 -0.05709332 0.9927005 0.001813709 -0.1205919 2.87086e-6 0.01504093 -0.9998869 -0.5939174 0.8044044 -0.01398688 1 0 0 1 0 0 0.998342 0.0575549 8.65638e-4 0 -0.9998869 -0.01503801 0 -0.999887 -0.01503843 0 -0.999887 -0.01503843 -0.9983394 -8.66297e-4 0.05759882 -0.983967 -0.002682089 0.1783306 -0.9129468 0.4043187 -0.0552684 0.996945 -0.001174628 0.07809722 0 -0.01503896 0.9998869 0 -0.9278106 0.3730519 0 0.9998869 0.01503753 0.5520051 0.8291901 0.08794438 -0.7373117 0.6754765 0.01015859 0 0.7886916 0.614789 -0.5501539 0.8304502 0.08765333 -0.8793861 0.4760553 0.007159471 0.7373117 0.6754765 0.01015859 0.8793861 0.4760554 0.007159471 0.5778099 0.8160791 0.01227474 0 0.9998869 0.01503753 0 0.9981692 0.06048381 0 0.9892148 0.1464714 0 -0.01503938 0.9998869 -0.9985374 -8.13011e-4 0.05405908 -0.7070944 -0.7069228 -0.01666116 0 0.8766408 0.4811454 -0.6520785 0.7471647 0.1286023 -0.9985374 -8.13084e-4 0.05405902 0 -0.01503825 0.9998869 0 0.8766408 0.4811454 0 -0.01503896 0.9998869 -0.983967 -0.00268203 0.1783306 -1 0 0 -1 0 0 -0.9261625 -0.3750467 -0.03953409 -1 0 0 -1 0 0 -0.2559306 -0.9666016 0.01345211 -0.5812788 -0.8136125 -0.01223689 -1 0 0 0 -0.999887 -0.01503819 0 -0.9977824 0.06655889 0 -0.9986632 -0.0516889 0 -0.999887 -0.01503843 0 -0.9986632 -0.0516889 -0.7063847 -0.7078159 0.004151165 0 -0.9998869 -0.01503801 0 -0.9942475 -0.1071067 0 -0.9942475 -0.1071067 1 0 0 0.9978379 -9.88442e-4 0.06571584 0.7485821 -0.6629672 -0.009970724 0.5812786 -0.8136126 -0.01223689 0.5807128 -0.8121567 -0.05634003 0.9983394 -8.66271e-4 0.05759888 1 0 0 0.9959184 -0.001357376 0.09024828 0.9839671 -0.002682149 0.1783306 0.3028225 -0.9510275 -0.06201106 -0.9927005 0.00181359 -0.1205919 -0.8768216 0.4758143 -0.06917095 -0.70565 -0.7061383 -0.05853861 -0.2820016 -0.9581784 -0.04867625 -0.9927005 0.001811742 -0.1205919 0.8640844 -0.4955037 -0.08851182 0.70565 -0.7061382 -0.05853861 -0.9930526 0.117672 6.62541e-5 0.9927005 0.001813828 -0.1205919 -0.9602438 -0.2791591 0.001355528 0.9292562 0.3679504 0.03309535 1 0 0 0.983967 -0.002682089 0.1783306 0.9959079 -0.001358985 0.09036433 0 -0.9998869 -0.01503872 0 -0.9942475 -0.1071068 0 -0.9942475 -0.1071067 -1 0 0 -1 0 0 -0.998342 0.05755501 8.65748e-4 0.996945 -0.001174509 0.07809728 0 -0.01503938 0.9998869 0 -0.9278105 0.3730519 0 0.9998869 0.01503753 0 0.9892148 0.1464714 0 0.9981692 0.06048381 -0.2356343 0.9717319 0.01461595 -0.2356356 0.9717316 0.0146141 -0.998342 0.0575549 8.65637e-4 -0.4629475 0.8810431 0.09717315 -0.983967 -0.00268197 0.1783306 -0.9959079 -0.001358985 0.09036433 -0.2356344 0.9717319 0.01461517 -0.230341 0.9729425 0.01805269 -0.7485821 -0.6629672 -0.009970724 0.983967 -0.00268191 0.1783306 0.4629475 0.8810431 0.09717315 0.9129468 0.4043188 -0.0552684 0.230341 0.9729425 0.01805269 0.2356344 0.9717319 0.01461511 0.9973196 0.02306735 0.0694369 0.2356356 0.9717316 0.0146141 0.2356343 0.9717319 0.01461589 0.998342 0.05755501 8.65754e-4 0 -0.9942475 -0.1071067 0 -0.9942475 -0.1071069 0 -0.9942475 -0.1071069 0 -0.9998869 -0.01503801 0 -0.9998869 -0.01503944 0 -0.9998869 -0.01503944 0 -0.9986632 -0.0516889 0 -0.999887 -0.01503843 0 -0.9998869 -0.01503801 0 -0.9998869 -0.01503801 -0.9259044 -0.3777152 -0.005680739 -0.9259044 -0.3777152 -0.005680978 -0.5812786 -0.8136127 -0.01223683 -0.9909701 0.1181819 0.06333506 -0.9251805 -0.3780145 0.03385418 -0.5807127 -0.8121567 -0.05634003 -1 0 0 -1 0 0 -1 0 0 -0.9261348 -0.3750228 -0.0403999 -1 0 0 -0.9959184 -0.001357376 0.09024828 0.8607248 0.4924542 0.1290028 0 -0.9942475 -0.1071067 1 0 0 0.9261348 -0.3750228 -0.0403999 0.9261625 -0.3750467 -0.03953409 1 0 0 1 0 0 1 0 0 0.9251805 -0.3780145 0.03385418 0.9909701 0.1181819 0.06333506 0.2559306 -0.9666016 0.01345211 0.9259044 -0.3777152 -0.005680859 0.9259044 -0.3777152 -0.00568068 0.5812788 -0.8136125 -0.01223689 0 -0.9998869 -0.01503801 -0.9999971 -3.64374e-5 0.002421557 -0.7447976 -0.5832732 -0.3241437 -0.3028225 -0.9510274 -0.06201106 -9.57601e-6 0.01504516 -0.9998868 -0.706434 0.7077766 0.001828372 -2.87086e-6 0.01504093 -0.9998869 0.7447975 -0.5832731 -0.3241437 0.9999971 -3.64345e-5 0.002421557 0.9602438 -0.2791591 0.001355528 0.706434 0.7077767 0.001828372 9.57601e-6 0.01504516 -0.9998868 0.9930526 0.117672 6.62543e-5 0 0.9998869 0.01503753 0 -0.01503843 0.999887 -0.9983419 0.05755496 8.65584e-4 1 0 0 1 0 0 0.8768216 0.4758144 -0.06917101 0.2345212 0.9720119 -0.01387643 0.9927005 0.001814484 -0.1205919 0.9927005 0.001811742 -0.1205919 0.8179527 0.4645298 -0.3393604 -0.9292562 0.3679504 0.03309535 -0.2702597 0.9559404 -0.1146197 -0.5688849 0.8061064 -0.1629799 1 0 0 1 0 0 1 0 0 1 0 0 0.998342 0.05755484 8.65581e-4 0 -0.9998869 -0.01503944 3.57628e-7 -0.9998869 -0.01503872 0 -0.9998869 -0.01503801 0 -0.999887 -0.01503819 0 -0.999887 -0.01503819 0 -0.9998869 -0.01503801 -0.9983394 -8.66271e-4 0.05759888 -0.9983394 -8.66003e-4 0.05759882 -0.9839671 -0.002682149 0.1783306 -0.983967 -0.002682149 0.1783306 -0.9981309 0.06100183 0.003696382 0.9969451 -0.001174569 0.07809728 0 -0.01503896 0.9998869 0 -0.9278104 0.3730518 0 0.9998869 0.01503753 0 0.7886916 0.614789 -0.753252 0.6512971 0.09177929 -0.8778904 0.4743689 0.06544208 -0.552005 0.8291901 0.08794438 -0.5778099 0.8160791 0.01227474 -0.8793863 0.4760552 0.007160425 -0.8793864 0.476055 0.007159471 0.8778904 0.474369 0.06544208 0.753252 0.6512971 0.09177929 0.8793863 0.476055 0.007159471 0.8793863 0.4760552 0.007160425 0.5501539 0.8304502 0.08765333 0 0.9998869 0.01503753 0.7369633 0.6746952 0.04088294 0.4758059 0.8700641 0.128829 0 0.9892148 0.1464714 0 -0.01503938 0.9998869 -0.9985374 -8.1311e-4 0.05405914 0 -0.01503843 0.999887 0 0.8766408 0.4811454 0 -0.01503825 0.9998869 -0.9985374 -8.13225e-4 0.05405908 -0.9985374 -8.13053e-4 0.05405908 0 0.8766408 0.4811454 0 -0.01503896 0.9998869 -0.983967 -0.00268203 0.1783306 -0.983967 -0.002682089 0.1783306 -1 0 0 -1 0 0 -1 0 0 -0.5808644 -0.8124654 -0.04996621 -1 0 0 -1 0 0 -1 0 0 -0.2820687 -0.9593192 0.01199716 -0.5812788 -0.8136125 -0.01223689 -1 0 0 -1 0 0 0 -0.999887 -0.01503819 0.7063848 -0.7078158 0.004151165 4.07168e-7 -0.9986632 -0.05168884 0 -0.9986632 -0.05168884 0 -0.999887 -0.01503843 0 -0.9977824 0.06655889 0 -0.9998869 -0.01503801 0 -0.9942475 -0.1071067 0 -0.9942475 -0.1071069 5.45315e-7 -0.9942475 -0.1071068 1 0 0 1 0 0 0.9912073 -0.1195749 0.05665802 1 0 0 0.7485835 -0.6629657 -0.009970486 0.5812789 -0.8136125 -0.0122376 0.2559509 -0.9666333 0.01045757 0.9983394 -8.66297e-4 0.05759882 0.9983394 -8.66062e-4 0.05759888 1 0 0 0.9219241 -0.3753617 0.09570574 0.983967 -0.002682089 0.1783306 0.983967 -0.002682149 0.1783306 0.5929338 -0.8017299 -0.07522493 -0.9927006 0.001814603 -0.1205919 -0.9927005 0.001813828 -0.1205919 -0.2345212 0.9720119 -0.01387643 -0.9964752 0.06146144 -0.05709332 -0.7056507 -0.7061377 -0.05853867 -0.8711749 -0.4879068 -0.05478274 0 -0.9965814 -0.08261644 -0.8640844 -0.4955037 -0.08851182 -0.9927005 0.001814067 -0.1205919 -0.9927005 0.001813709 -0.1205919 0 -0.9965814 -0.08261644 0.2820016 -0.9581784 -0.04867625 0.7056508 -0.7061376 -0.05853867 0.8711749 -0.4879069 -0.05478274 -0.9999971 -3.63817e-5 0.002421557 0.9927006 0.001814484 -0.1205919 0.9927005 0.00181359 -0.1205919 2.81809e-6 0.01503753 -0.9998869 0.5939174 0.8044044 -0.01398688 0.568885 0.8061063 -0.1629799 0.2702598 0.9559404 -0.1146197 1 0 0 0.983967 -0.00268203 0.1783306 0.983967 -0.00268203 0.1783306 0.8918375 0.4515277 0.0273602 0 -0.9998869 -0.01503872 0 -0.9942475 -0.1071068 -0.9912073 -0.1195749 0.05665802 -0.9978379 -9.88442e-4 0.06571584 -1 0 0 -1 0 0 -0.9906172 0.1154046 0.07320684 0.9969452 -0.001174628 0.07809734 0 -0.01503938 0.9998869 0 -0.9278104 0.3730518 0 0.9998869 0.01503753 0 0.9892148 0.1464714 -0.4758059 0.8700642 0.128829 -0.7369633 0.6746952 0.04088294 -0.2356338 0.971732 0.01461684 -0.2356351 0.9717317 0.01461499 -0.998342 0.05755484 8.65581e-4 -0.2297822 0.9730008 0.02166789 -0.5610777 0.8272985 0.02773284 -0.8918375 0.4515277 0.0273602 -0.2315137 0.972659 0.01832616 -0.2356359 0.9717316 0.0146144 -0.7485835 -0.6629657 -0.009970486 0.5610777 0.8272985 0.02773284 0.2297822 0.9730008 0.02166789 0.9981309 0.06100183 0.003696382 0.2356359 0.9717316 0.0146144 0.2315137 0.972659 0.01832616 0.9983419 0.05755496 8.65584e-4 0.2356351 0.9717317 0.01461499 0.2356338 0.971732 0.01461684 0.9906172 0.1154046 0.07320684 0 -0.9942475 -0.1071067 0 -0.9942475 -0.1071069 0 -0.9942475 -0.1071069 0 -0.9998869 -0.01503801 0 -0.9998869 -0.01503944 0 -0.9998869 -0.01503944 0 -0.9986632 -0.05168884 -3.78085e-7 -0.9986632 -0.05168884 0 -0.999887 -0.01503843 0 -0.9998869 -0.01503801 0 -0.9998869 -0.01503801 -0.9259044 -0.3777152 -0.005680859 -0.9259044 -0.3777152 -0.005680859 -0.5812789 -0.8136125 -0.0122376 -0.8570408 -0.4949394 0.143234 -0.9913142 0.1199857 -0.05384612 -0.2559509 -0.9666333 0.01045757 -1 0 0 -1 0 0 -1 0 0 -0.9253554 -0.3769735 -0.04010379 -0.9261739 -0.3760654 0.02787262 -0.9219241 -0.3753617 0.09570574 0 0.8766408 0.4811454 0.9969451 -0.001174807 0.07809728 -5.45315e-7 -0.9942475 -0.1071068 0 -0.9942475 -0.1071069 0.9261739 -0.3760654 0.02787262 0.9253554 -0.3769735 -0.04010379 0.5808644 -0.8124654 -0.04996621 1 0 0 1 0 0 1 0 0 0.9913142 0.1199857 -0.05384612 0.8570408 -0.4949394 0.143234 0.2820687 -0.9593192 0.01199716 0.9259044 -0.3777152 -0.005680859 0.9259044 -0.3777152 -0.005680859 0.5812788 -0.8136125 -0.01223689 0 -0.9998869 -0.01503872 -4.76838e-7 -0.9998869 -0.01503896 -0.9864684 -0.1638489 -0.005799233 2.88552e-7 0.01503789 -0.9998869 -0.5929338 -0.8017299 -0.07522493 -0.937762 0.3470844 0.01161718 -0.7779945 0.6282117 -0.008642375 -0.8179527 0.4645298 -0.3393604 -2.88552e-7 0.01503789 -0.9998869 0.9864684 -0.1638489 -0.005799233 -2.81809e-6 0.01503753 -0.9998869 0.7779945 0.6282117 -0.008642375 0.937762 0.3470844 0.01161718 0.9999971 -3.63817e-5 0.002421557</float_array>
          <technique_common>
            <accessor source="#Cube-mesh-normals-array" count="368" stride="3">
              <param name="X" type="float"/>
              <param name="Y" type="float"/>
              <param name="Z" type="float"/>
            </accessor>
          </technique_common>
        </source>
        <source id="Cube-mesh-map-0">
          <float_array id="Cube-mesh-map-0-array" count="2208">0.875 0.6875 0.8125 0.75 0.8125 0.6875 0.625 0.9375 0.5625 1 0.5625 0.9375 0.625 0.21875 0.59375 0.25 0.59375 0.21875 0.34375 0.6875 0.375 0.6875 0.375 0.71875 0.59375 0.6875 0.625 0.75 0.5625 0.75 0.5625 0.4375 0.625 0.5 0.59375 0.5 0.46875 0.4375 0.5 0.5 0.4375 0.5 0.5 0.34375 0.46875 0.375 0.46875 0.34375 0.59375 0.375 0.5625 0.375 0.5625 0.34375 0.5 0.75 0.4375 0.75 0.4375 0.71875 0.5 0.625 0.4375 0.625 0.4375 0.59375 0.59375 0.59375 0.625 0.625 0.59375 0.625 0.25 0.75 0.1875 0.75 0.1875 0.71875 0.25 0.625 0.1875 0.625 0.1875 0.59375 0.375 0.59375 0.375 0.625 0.3125 0.625 0.5 0.25 0.4375 0.25 0.4375 0.21875 0.5 0.125 0.4375 0.125 0.4375 0.09375 0.625 0.09375 0.59375 0.125 0.59375 0.09375 0.5 0.9375 0.4375 1 0.4375 0.9375 0.5 0.8125 0.4375 0.875 0.4375 0.8125 0.625 0.8125 0.5625 0.875 0.5625 0.8125 0.75 0.6875 0.6875 0.75 0.6875 0.6875 0.75 0.5625 0.6875 0.625 0.6875 0.5625 0.875 0.59375 0.875 0.625 0.8125 0.625 0.75 0.5625 0.8125 0.625 0.75 0.625 0.75 0.5 0.8125 0.5625 0.75 0.5625 0.875 0.53125 0.875 0.5625 0.8125 0.5625 0.6875 0.625 0.625 0.625 0.625 0.59375 0.6875 0.5625 0.625 0.5625 0.625 0.53125 0.75 0.5 0.6875 0.5625 0.6875 0.5 0.6875 0.6875 0.625 0.75 0.625 0.6875 0.6875 0.6875 0.625 0.6875 0.625 0.65625 0.75 0.625 0.6875 0.6875 0.6875 0.625 0.5625 0.8125 0.5 0.875 0.5 0.8125 0.5625 0.75 0.5 0.8125 0.5 0.75 0.5625 0.75 0.625 0.8125 0.5625 0.8125 0.375 0.8125 0.4375 0.875 0.375 0.875 0.40625 0.75 0.4375 0.8125 0.375 0.8125 0.4375 0.75 0.5 0.8125 0.4375 0.8125 0.375 0.96875 0.40625 1 0.375 1 0.4375 0.875 0.375 0.9375 0.375 0.875 0.5 0.875 0.4375 0.9375 0.4375 0.875 0.5625 0.09375 0.5625 0.125 0.5 0.125 0.5625 0 0.5 0.0625 0.5 0 0.625 0 0.625 0.0625 0.59375 0.0625 0.4375 0.09375 0.40625 0.125 0.40625 0.09375 0.40625 0.03125 0.4375 0.0625 0.40625 0.0625 0.5 0.0625 0.4375 0.0625 0.4375 0.03125 0.4375 0.21875 0.40625 0.25 0.40625 0.21875 0.4375 0.15625 0.40625 0.1875 0.40625 0.15625 0.5 0.1875 0.4375 0.1875 0.4375 0.15625 0.3125 0.5625 0.25 0.625 0.25 0.5625 0.25 0.5 0.3125 0.5625 0.25 0.5625 0.375 0.53125 0.375 0.5625 0.3125 0.5625 0.1875 0.59375 0.15625 0.625 0.15625 0.59375 0.125 0.53125 0.15625 0.5625 0.125 0.5625 0.25 0.5 0.1875 0.5625 0.1875 0.5 0.1875 0.71875 0.15625 0.75 0.15625 0.71875 0.1875 0.65625 0.15625 0.6875 0.15625 0.65625 0.25 0.6875 0.1875 0.6875 0.1875 0.65625 0.5625 0.59375 0.5625 0.625 0.5 0.625 0.5625 0.53125 0.5625 0.5625 0.5 0.5625 0.59375 0.53125 0.625 0.5625 0.59375 0.5625 0.40625 0.59375 0.4375 0.625 0.40625 0.625 0.40625 0.53125 0.4375 0.5625 0.40625 0.5625 0.5 0.5625 0.4375 0.5625 0.4375 0.53125 0.4375 0.71875 0.40625 0.75 0.40625 0.71875 0.40625 0.65625 0.4375 0.6875 0.40625 0.6875 0.5 0.6875 0.4375 0.6875 0.4375 0.65625 0.5625 0.34375 0.53125 0.375 0.53125 0.34375 0.5625 0.25 0.5625 0.3125 0.53125 0.3125 0.625 0.25 0.625 0.3125 0.5625 0.3125 0.4375 0.34375 0.4375 0.375 0.375 0.3125 0.40625 0.25 0.4375 0.25 0.4375 0.3125 0.5 0.25 0.5 0.3125 0.46875 0.3125 0.4375 0.4375 0.40625 0.5 0.375 0.5 0.4375 0.375 0.4375 0.40625 0.375 0.4375 0.5 0.40625 0.46875 0.4375 0.46875 0.40625 0.53125 0.4375 0.5625 0.5 0.5 0.5 0.5625 0.40625 0.53125 0.4375 0.53125 0.40625 0.5625 0.4375 0.5625 0.40625 0.59375 0.375 0.5 0.6875 0.5625 0.75 0.5 0.75 0.5625 0.65625 0.5625 0.6875 0.5 0.6875 0.59375 0.65625 0.625 0.6875 0.59375 0.6875 0.3125 0.6875 0.25 0.75 0.25 0.6875 0.3125 0.625 0.25 0.6875 0.25 0.625 0.34375 0.6875 0.375 0.65625 0.375 0.6875 0.5625 0.21875 0.5625 0.25 0.5 0.25 0.5625 0.15625 0.5625 0.1875 0.5 0.1875 0.625 0.15625 0.59375 0.1875 0.59375 0.15625 0.5 0.9375 0.5625 1 0.5 1 0.5625 0.875 0.5 0.9375 0.5 0.875 0.5625 0.875 0.625 0.9375 0.5625 0.9375 0.8125 0.6875 0.75 0.75 0.75 0.6875 0.8125 0.625 0.75 0.6875 0.75 0.625 0.875 0.65625 0.875 0.6875 0.8125 0.6875 0.59375 0.15625 0.5625 0.1875 0.5625 0.15625 0.59375 0.125 0.5625 0.15625 0.5625 0.125 0.625 0.125 0.59375 0.15625 0.59375 0.125 0.59375 0.09375 0.5625 0.125 0.5625 0.09375 0.59375 0.0625 0.5625 0.09375 0.5625 0.0625 0.625 0.0625 0.59375 0.09375 0.59375 0.0625 0.5625 0.21875 0.59375 0.25 0.5625 0.25 0.5625 0.1875 0.59375 0.21875 0.5625 0.21875 0.625 0.1875 0.59375 0.21875 0.59375 0.1875 0.5625 0.65625 0.59375 0.6875 0.5625 0.6875 0.5625 0.625 0.59375 0.65625 0.5625 0.65625 0.59375 0.625 0.625 0.65625 0.59375 0.65625 0.59375 0.53125 0.5625 0.5625 0.5625 0.53125 0.59375 0.5 0.5625 0.53125 0.5625 0.5 0.59375 0.5 0.625 0.53125 0.59375 0.53125 0.5625 0.59375 0.59375 0.625 0.5625 0.625 0.5625 0.5625 0.59375 0.59375 0.5625 0.59375 0.59375 0.5625 0.625 0.59375 0.59375 0.59375 0.15625 0.65625 0.125 0.6875 0.125 0.65625 0.15625 0.625 0.125 0.65625 0.125 0.625 0.1875 0.625 0.15625 0.65625 0.15625 0.625 0.15625 0.71875 0.125 0.75 0.125 0.71875 0.15625 0.6875 0.125 0.71875 0.125 0.6875 0.1875 0.6875 0.15625 0.71875 0.15625 0.6875 0.1875 0.5625 0.15625 0.5625 0.125 0.53125 0.15625 0.59375 0.125 0.625 0.125 0.59375 0.15625 0.5625 0.125 0.59375 0.125 0.5625 0.1875 0.5625 0.15625 0.59375 0.15625 0.5625 0.375 0.15625 0.40625 0.1875 0.375 0.1875 0.375 0.125 0.40625 0.15625 0.375 0.15625 0.4375 0.125 0.40625 0.15625 0.40625 0.125 0.40625 0.21875 0.375 0.25 0.375 0.21875 0.40625 0.1875 0.375 0.21875 0.375 0.1875 0.4375 0.1875 0.40625 0.21875 0.40625 0.1875 0.375 0.03125 0.40625 0.0625 0.375 0.0625 0.375 0 0.40625 0.03125 0.375 0.03125 0.40625 0 0.4375 0.03125 0.40625 0.03125 0.40625 0.09375 0.375 0.125 0.375 0.09375 0.40625 0.0625 0.375 0.09375 0.375 0.0625 0.4375 0.0625 0.40625 0.09375 0.40625 0.0625 0.4375 0.9375 0.40625 1 0.375 0.96875 0.375 0.65625 0.34375 0.6875 0.3125 0.6875 0.375 0.65625 0.40625 0.6875 0.375 0.6875 0.375 0.625 0.40625 0.65625 0.375 0.65625 0.40625 0.625 0.4375 0.65625 0.40625 0.65625 0.40625 0.71875 0.375 0.75 0.375 0.71875 0.40625 0.6875 0.375 0.71875 0.375 0.6875 0.4375 0.6875 0.40625 0.71875 0.40625 0.6875 0.375 0.53125 0.40625 0.5625 0.375 0.5625 0.375 0.5 0.40625 0.53125 0.375 0.53125 0.40625 0.5 0.4375 0.53125 0.40625 0.53125 0.40625 0.59375 0.375 0.625 0.375 0.59375 0.40625 0.5625 0.375 0.59375 0.375 0.5625 0.40625 0.5625 0.4375 0.59375 0.40625 0.59375 0.375 0.71875 0.375 0.75 0.3125 0.75 0.5 0.40625 0.53125 0.4375 0.5 0.4375 0.53125 0.375 0.5 0.40625 0.5 0.375 0.53125 0.375 0.5625 0.40625 0.53125 0.40625 0.4375 0.40625 0.46875 0.4375 0.4375 0.4375 0.46875 0.375 0.4375 0.40625 0.4375 0.375 0.46875 0.375 0.5 0.40625 0.46875 0.40625 0.5 0.34375 0.53125 0.375 0.5 0.375 0.53125 0.3125 0.5 0.34375 0.5 0.3125 0.53125 0.3125 0.5625 0.34375 0.53125 0.34375 0.4375 0.34375 0.46875 0.375 0.4375 0.375 0.46875 0.3125 0.4375 0.34375 0.4375 0.3125 0.46875 0.3125 0.5 0.34375 0.46875 0.34375 0.875 0.6875 0.875 0.75 0.8125 0.75 0.625 0.9375 0.625 1 0.5625 1 0.625 0.21875 0.625 0.25 0.59375 0.25 0.5625 0.75 0.5625 0.6875 0.59375 0.6875 0.59375 0.6875 0.625 0.6875 0.625 0.75 0.5625 0.4375 0.625 0.4375 0.625 0.5 0.59375 0.5 0.5625 0.5 0.5625 0.4375 0.4375 0.5 0.4375 0.4375 0.46875 0.4375 0.46875 0.4375 0.5 0.4375 0.5 0.5 0.5 0.34375 0.5 0.375 0.46875 0.375 0.5625 0.34375 0.5625 0.3125 0.59375 0.375 0.5625 0.3125 0.625 0.3125 0.59375 0.375 0.625 0.3125 0.625 0.375 0.59375 0.375 0.4375 0.71875 0.4375 0.6875 0.5 0.6875 0.5 0.6875 0.5 0.75 0.4375 0.71875 0.4375 0.59375 0.4375 0.5625 0.5 0.5625 0.5 0.5625 0.5 0.625 0.4375 0.59375 0.59375 0.59375 0.625 0.59375 0.625 0.625 0.1875 0.71875 0.1875 0.6875 0.25 0.6875 0.25 0.6875 0.25 0.75 0.1875 0.71875 0.1875 0.59375 0.1875 0.5625 0.25 0.5625 0.25 0.5625 0.25 0.625 0.1875 0.59375 0.3125 0.625 0.3125 0.5625 0.375 0.59375 0.3125 0.5625 0.375 0.5625 0.375 0.59375 0.4375 0.21875 0.4375 0.1875 0.5 0.1875 0.5 0.1875 0.5 0.25 0.4375 0.21875 0.4375 0.09375 0.4375 0.0625 0.5 0.0625 0.5 0.0625 0.5 0.125 0.4375 0.09375 0.625 0.09375 0.625 0.125 0.59375 0.125 0.5 0.9375 0.5 1 0.4375 1 0.5 0.8125 0.5 0.875 0.4375 0.875 0.625 0.8125 0.625 0.875 0.5625 0.875 0.75 0.6875 0.75 0.75 0.6875 0.75 0.75 0.5625 0.75 0.625 0.6875 0.625 0.8125 0.625 0.8125 0.5625 0.875 0.59375 0.8125 0.5625 0.875 0.5625 0.875 0.59375 0.75 0.5625 0.8125 0.5625 0.8125 0.625 0.75 0.5 0.8125 0.5 0.8125 0.5625 0.8125 0.5625 0.8125 0.5 0.875 0.53125 0.8125 0.5 0.875 0.5 0.875 0.53125 0.625 0.59375 0.625 0.5625 0.6875 0.5625 0.6875 0.5625 0.6875 0.625 0.625 0.59375 0.625 0.53125 0.625 0.5 0.6875 0.5 0.6875 0.5 0.6875 0.5625 0.625 0.53125 0.75 0.5 0.75 0.5625 0.6875 0.5625 0.6875 0.6875 0.6875 0.75 0.625 0.75 0.625 0.65625 0.625 0.625 0.6875 0.625 0.6875 0.625 0.6875 0.6875 0.625 0.65625 0.75 0.625 0.75 0.6875 0.6875 0.6875 0.5625 0.8125 0.5625 0.875 0.5 0.875 0.5625 0.75 0.5625 0.8125 0.5 0.8125 0.5625 0.75 0.625 0.75 0.625 0.8125 0.375 0.8125 0.4375 0.8125 0.4375 0.875 0.375 0.8125 0.375 0.75 0.40625 0.75 0.40625 0.75 0.4375 0.75 0.4375 0.8125 0.4375 0.75 0.5 0.75 0.5 0.8125 0.4375 0.875 0.4375 0.9375 0.375 0.9375 0.5 0.875 0.5 0.9375 0.4375 0.9375 0.5 0.125 0.5 0.0625 0.5625 0.09375 0.5 0.0625 0.5625 0.0625 0.5625 0.09375 0.5625 0 0.5625 0.0625 0.5 0.0625 0.5625 0.0625 0.5625 0 0.59375 0.0625 0.5625 0 0.625 0 0.59375 0.0625 0.4375 0.09375 0.4375 0.125 0.40625 0.125 0.40625 0.03125 0.4375 0.03125 0.4375 0.0625 0.4375 0.03125 0.4375 0 0.5 0 0.5 0 0.5 0.0625 0.4375 0.03125 0.4375 0.21875 0.4375 0.25 0.40625 0.25 0.4375 0.15625 0.4375 0.1875 0.40625 0.1875 0.4375 0.15625 0.4375 0.125 0.5 0.125 0.5 0.125 0.5 0.1875 0.4375 0.15625 0.3125 0.5625 0.3125 0.625 0.25 0.625 0.25 0.5 0.3125 0.5 0.3125 0.5625 0.3125 0.5625 0.3125 0.5 0.375 0.53125 0.3125 0.5 0.375 0.5 0.375 0.53125 0.1875 0.59375 0.1875 0.625 0.15625 0.625 0.25 0.5 0.25 0.5625 0.1875 0.5625 0.1875 0.71875 0.1875 0.75 0.15625 0.75 0.1875 0.65625 0.1875 0.6875 0.15625 0.6875 0.1875 0.65625 0.1875 0.625 0.25 0.625 0.25 0.625 0.25 0.6875 0.1875 0.65625 0.5 0.625 0.5 0.5625 0.5625 0.59375 0.5 0.5625 0.5625 0.5625 0.5625 0.59375 0.5 0.5625 0.5 0.5 0.5625 0.53125 0.5 0.5 0.5625 0.5 0.5625 0.53125 0.59375 0.53125 0.625 0.53125 0.625 0.5625 0.40625 0.59375 0.4375 0.59375 0.4375 0.625 0.40625 0.53125 0.4375 0.53125 0.4375 0.5625 0.4375 0.53125 0.4375 0.5 0.5 0.5 0.5 0.5 0.5 0.5625 0.4375 0.53125 0.4375 0.71875 0.4375 0.75 0.40625 0.75 0.40625 0.65625 0.4375 0.65625 0.4375 0.6875 0.4375 0.65625 0.4375 0.625 0.5 0.625 0.5 0.625 0.5 0.6875 0.4375 0.65625 0.5625 0.34375 0.5625 0.375 0.53125 0.375 0.5 0.3125 0.5 0.25 0.53125 0.3125 0.5 0.25 0.5625 0.25 0.53125 0.3125 0.5625 0.3125 0.5625 0.25 0.59375 0.25 0.59375 0.25 0.625 0.25 0.5625 0.3125 0.375 0.375 0.375 0.3125 0.4375 0.375 0.375 0.3125 0.4375 0.3125 0.4375 0.34375 0.375 0.3125 0.375 0.25 0.4375 0.3125 0.375 0.25 0.40625 0.25 0.4375 0.3125 0.4375 0.3125 0.4375 0.25 0.46875 0.3125 0.4375 0.25 0.5 0.25 0.46875 0.3125 0.375 0.5 0.375 0.4375 0.4375 0.4375 0.4375 0.4375 0.4375 0.5 0.40625 0.5 0.375 0.4375 0.375 0.375 0.4375 0.375 0.4375 0.40625 0.4375 0.4375 0.375 0.4375 0.5 0.40625 0.5 0.4375 0.46875 0.4375 0.5 0.5 0.5 0.4375 0.53125 0.4375 0.53125 0.4375 0.5625 0.4375 0.5625 0.5 0.5625 0.40625 0.5625 0.4375 0.53125 0.4375 0.5625 0.40625 0.5625 0.375 0.59375 0.375 0.59375 0.375 0.625 0.375 0.625 0.4375 0.625 0.4375 0.5625 0.4375 0.59375 0.375 0.5 0.6875 0.5625 0.6875 0.5625 0.75 0.5 0.6875 0.5 0.625 0.5625 0.65625 0.5 0.625 0.5625 0.625 0.5625 0.65625 0.59375 0.65625 0.625 0.65625 0.625 0.6875 0.3125 0.6875 0.3125 0.75 0.25 0.75 0.3125 0.625 0.3125 0.6875 0.25 0.6875 0.5 0.25 0.5 0.1875 0.5625 0.21875 0.5 0.1875 0.5625 0.1875 0.5625 0.21875 0.5 0.1875 0.5 0.125 0.5625 0.15625 0.5 0.125 0.5625 0.125 0.5625 0.15625 0.625 0.15625 0.625 0.1875 0.59375 0.1875 0.5 0.9375 0.5625 0.9375 0.5625 1 0.5625 0.875 0.5625 0.9375 0.5 0.9375 0.5625 0.875 0.625 0.875 0.625 0.9375 0.8125 0.6875 0.8125 0.75 0.75 0.75 0.8125 0.625 0.8125 0.6875 0.75 0.6875 0.8125 0.6875 0.8125 0.625 0.875 0.65625 0.8125 0.625 0.875 0.625 0.875 0.65625 0.59375 0.15625 0.59375 0.1875 0.5625 0.1875 0.59375 0.125 0.59375 0.15625 0.5625 0.15625 0.625 0.125 0.625 0.15625 0.59375 0.15625 0.59375 0.09375 0.59375 0.125 0.5625 0.125 0.59375 0.0625 0.59375 0.09375 0.5625 0.09375 0.625 0.0625 0.625 0.09375 0.59375 0.09375 0.5625 0.21875 0.59375 0.21875 0.59375 0.25 0.5625 0.1875 0.59375 0.1875 0.59375 0.21875 0.625 0.1875 0.625 0.21875 0.59375 0.21875 0.5625 0.65625 0.59375 0.65625 0.59375 0.6875 0.5625 0.625 0.59375 0.625 0.59375 0.65625 0.59375 0.625 0.625 0.625 0.625 0.65625 0.59375 0.53125 0.59375 0.5625 0.5625 0.5625 0.59375 0.5 0.59375 0.53125 0.5625 0.53125 0.59375 0.5 0.625 0.5 0.625 0.53125 0.5625 0.59375 0.59375 0.59375 0.59375 0.625 0.5625 0.5625 0.59375 0.5625 0.59375 0.59375 0.59375 0.5625 0.625 0.5625 0.625 0.59375 0.15625 0.65625 0.15625 0.6875 0.125 0.6875 0.15625 0.625 0.15625 0.65625 0.125 0.65625 0.1875 0.625 0.1875 0.65625 0.15625 0.65625 0.15625 0.71875 0.15625 0.75 0.125 0.75 0.15625 0.6875 0.15625 0.71875 0.125 0.71875 0.1875 0.6875 0.1875 0.71875 0.15625 0.71875 0.125 0.53125 0.125 0.5 0.1875 0.5 0.1875 0.5 0.1875 0.5625 0.125 0.53125 0.15625 0.59375 0.15625 0.625 0.125 0.625 0.15625 0.5625 0.15625 0.59375 0.125 0.59375 0.1875 0.5625 0.1875 0.59375 0.15625 0.59375 0.375 0.15625 0.40625 0.15625 0.40625 0.1875 0.375 0.125 0.40625 0.125 0.40625 0.15625 0.4375 0.125 0.4375 0.15625 0.40625 0.15625 0.40625 0.21875 0.40625 0.25 0.375 0.25 0.40625 0.1875 0.40625 0.21875 0.375 0.21875 0.4375 0.1875 0.4375 0.21875 0.40625 0.21875 0.375 0.03125 0.40625 0.03125 0.40625 0.0625 0.375 0 0.40625 0 0.40625 0.03125 0.40625 0 0.4375 0 0.4375 0.03125 0.40625 0.09375 0.40625 0.125 0.375 0.125 0.40625 0.0625 0.40625 0.09375 0.375 0.09375 0.4375 0.0625 0.4375 0.09375 0.40625 0.09375 0.375 0.96875 0.375 0.9375 0.4375 0.9375 0.4375 0.9375 0.4375 1 0.40625 1 0.3125 0.6875 0.3125 0.625 0.375 0.65625 0.3125 0.625 0.375 0.625 0.375 0.65625 0.375 0.65625 0.40625 0.65625 0.40625 0.6875 0.375 0.625 0.40625 0.625 0.40625 0.65625 0.40625 0.625 0.4375 0.625 0.4375 0.65625 0.40625 0.71875 0.40625 0.75 0.375 0.75 0.40625 0.6875 0.40625 0.71875 0.375 0.71875 0.4375 0.6875 0.4375 0.71875 0.40625 0.71875 0.375 0.53125 0.40625 0.53125 0.40625 0.5625 0.375 0.5 0.40625 0.5 0.40625 0.53125 0.40625 0.5 0.4375 0.5 0.4375 0.53125 0.40625 0.59375 0.40625 0.625 0.375 0.625 0.40625 0.5625 0.40625 0.59375 0.375 0.59375 0.40625 0.5625 0.4375 0.5625 0.4375 0.59375 0.3125 0.75 0.3125 0.6875 0.34375 0.6875 0.34375 0.6875 0.375 0.71875 0.3125 0.75 0.5 0.40625 0.53125 0.40625 0.53125 0.4375 0.53125 0.375 0.53125 0.40625 0.5 0.40625 0.53125 0.375 0.5625 0.375 0.5625 0.40625 0.4375 0.40625 0.46875 0.40625 0.46875 0.4375 0.46875 0.375 0.46875 0.40625 0.4375 0.40625 0.46875 0.375 0.5 0.375 0.5 0.40625 0.5 0.34375 0.53125 0.34375 0.53125 0.375 0.53125 0.3125 0.53125 0.34375 0.5 0.34375 0.53125 0.3125 0.5625 0.3125 0.5625 0.34375 0.4375 0.34375 0.46875 0.34375 0.46875 0.375 0.46875 0.3125 0.46875 0.34375 0.4375 0.34375 0.46875 0.3125 0.5 0.3125 0.5 0.34375</float_array>
          <technique_common>
            <accessor source="#Cube-mesh-map-0-array" count="1104" stride="2">
              <param name="S" type="float"/>
              <param name="T" type="float"/>
            </accessor>
          </technique_common>
        </source>
        <vertices id="Cube-mesh-vertices">
          <input semantic="POSITION" source="#Cube-mesh-positions"/>
        </vertices>
        <triangles material="Material-material" count="368">
          <input semantic="VERTEX" source="#Cube-mesh-vertices" offset="0"/>
          <input semantic="NORMAL" source="#Cube-mesh-normals" offset="1"/>
          <input semantic="TEXCOORD" source="#Cube-mesh-map-0" offset="2" set="0"/>
          <p>47 0 0 32 0 1 97 0 2 32 1 3 29 1 4 96 1 5 98 2 6 101 2 7 110 2 8 164 3 9 49 3 10 157 3 11 120 4 12 2 4 13 42 4 14 92 5 15 0 5 16 113 5 17 178 6 18 10 6 19 28 6 20 169 7 21 172 7 22 184 7 23 185 8 24 53 8 25 173 8 26 12 9 27 30 9 28 161 9 29 21 10 30 56 10 31 158 10 32 123 11 33 15 11 34 115 11 35 16 12 36 46 12 37 141 12 38 22 13 39 60 13 40 139 13 41 156 14 42 19 14 43 61 14 44 13 15 45 31 15 46 136 15 47 23 16 48 64 16 49 133 16 50 99 17 51 102 17 52 109 17 53 66 18 54 41 18 55 79 18 56 67 19 57 68 19 58 78 19 59 44 20 60 69 20 61 77 20 62 70 21 63 44 21 64 76 21 65 71 22 66 72 22 67 75 22 68 100 23 69 17 23 70 73 23 71 71 24 72 73 24 73 25 24 74 18 25 75 74 25 76 71 25 77 98 26 78 35 26 79 74 26 80 72 27 81 15 27 82 111 27 83 75 28 84 45 28 85 114 28 86 18 29 87 75 29 88 36 29 89 76 30 90 2 30 91 33 30 92 76 31 93 33 31 94 112 31 95 25 32 96 76 32 97 72 32 98 77 33 99 24 33 100 67 33 101 42 34 102 67 34 103 12 34 104 42 35 105 44 35 106 77 35 107 34 36 108 68 36 109 16 36 110 152 37 111 78 37 112 34 37 113 30 38 114 67 38 115 78 38 116 132 39 117 131 39 118 7 39 119 68 40 120 46 40 121 16 40 122 24 41 123 79 41 124 68 41 125 103 42 126 65 42 127 23 42 128 29 43 129 63 43 130 11 43 131 6 44 132 47 44 133 104 44 134 133 45 135 128 45 136 150 45 137 149 46 138 81 46 139 135 46 140 63 47 141 81 47 142 134 47 143 136 48 144 125 48 145 148 48 146 137 49 147 138 49 148 147 49 149 62 50 150 82 50 151 137 50 152 83 51 153 22 51 154 59 51 155 9 52 156 83 52 157 59 52 158 153 53 159 37 53 160 83 53 161 139 54 162 127 54 163 146 54 164 130 55 165 140 55 166 38 55 167 9 56 168 84 56 169 27 56 170 141 57 171 132 57 172 145 57 173 142 58 174 143 58 175 144 58 176 58 59 177 85 59 178 142 59 179 116 60 180 57 60 181 21 60 182 117 61 183 86 61 184 55 61 185 122 62 186 45 62 187 118 62 188 168 63 189 56 63 190 155 63 191 167 64 192 87 64 193 160 64 194 55 65 195 87 65 196 159 65 197 161 66 198 152 66 199 166 66 200 165 67 201 88 67 202 163 67 203 54 68 204 88 68 205 162 68 206 173 69 207 170 69 208 183 69 209 43 70 210 89 70 211 174 70 212 4 71 213 48 71 214 89 71 215 175 72 216 52 72 217 27 72 218 125 73 219 31 73 220 90 73 221 13 74 222 51 74 223 176 74 224 91 75 225 151 75 226 1 75 227 52 76 228 177 76 229 39 76 230 171 77 231 178 77 232 182 77 233 180 78 234 40 78 235 10 78 236 179 79 237 180 79 238 181 79 239 92 80 240 179 80 241 185 80 242 54 81 243 42 81 244 12 81 245 119 82 246 93 82 247 54 82 248 121 83 249 33 83 250 120 83 251 94 84 252 16 84 253 58 84 254 61 85 255 58 85 256 22 85 257 164 86 258 154 86 259 49 86 260 105 87 261 43 87 262 13 87 263 106 88 264 95 88 265 62 88 266 100 89 267 107 89 268 108 89 269 66 90 270 29 90 271 11 90 272 69 91 273 66 91 274 24 91 275 69 92 276 32 92 277 96 92 278 97 93 279 14 93 280 70 93 281 73 94 282 70 94 283 25 94 284 99 95 285 47 95 286 97 95 287 108 96 288 95 96 289 106 96 290 102 97 291 106 97 292 65 97 293 17 98 294 108 98 295 102 98 296 109 99 297 65 99 298 103 99 299 104 100 300 103 100 301 80 100 302 47 101 303 109 101 304 104 101 305 105 102 306 101 102 307 43 102 308 95 103 309 110 103 310 105 103 311 35 104 312 110 104 313 107 104 314 119 105 315 120 105 316 93 105 317 57 106 318 121 106 319 119 106 320 115 107 321 112 107 322 121 107 323 122 108 324 86 108 325 117 108 326 113 109 327 117 109 328 40 109 329 113 110 330 114 110 331 122 110 332 116 111 333 115 111 334 57 111 335 86 112 336 123 112 337 116 112 338 118 113 339 111 113 340 123 113 341 144 114 342 26 114 343 129 114 344 127 115 345 129 115 346 8 115 347 60 116 348 144 116 349 127 116 350 145 117 351 7 117 352 124 117 353 143 118 354 124 118 355 26 118 356 85 119 357 145 119 358 143 119 359 84 120 360 140 120 361 130 120 362 146 121 363 8 121 364 126 121 365 140 122 366 126 122 367 38 122 368 84 123 369 146 123 370 140 123 371 126 124 372 138 124 373 38 124 374 8 125 375 147 125 376 126 125 377 64 126 378 147 126 379 128 126 380 148 127 381 5 127 382 130 127 383 138 128 384 130 128 385 38 128 386 82 129 387 148 129 388 138 129 389 124 130 390 135 130 391 26 130 392 7 131 393 149 131 394 124 131 395 131 132 396 134 132 397 149 132 398 150 133 399 8 133 400 129 133 401 135 134 402 129 134 403 26 134 404 81 135 405 150 135 406 135 135 407 79 136 408 131 136 409 132 136 410 154 137 411 164 137 412 94 137 413 154 138 414 163 138 415 49 138 416 19 139 417 165 139 418 154 139 419 155 140 420 162 140 421 165 140 422 166 141 423 3 141 424 157 141 425 163 142 426 157 142 427 49 142 428 88 143 429 166 143 430 163 143 431 153 144 432 160 144 433 37 144 434 1 145 435 167 145 436 153 145 437 151 146 438 159 146 439 167 146 440 168 147 441 19 147 442 156 147 443 160 148 444 156 148 445 37 148 446 160 149 447 158 149 448 168 149 449 157 150 450 3 150 451 34 150 452 171 151 453 180 151 454 50 151 455 170 152 456 171 152 457 20 152 458 170 153 459 179 153 460 181 153 461 177 154 462 178 154 463 91 154 464 172 155 465 177 155 466 52 155 467 172 156 468 171 156 469 182 156 470 169 157 471 170 157 472 20 157 473 174 158 474 169 158 475 51 158 476 174 159 477 173 159 478 183 159 479 175 160 480 172 160 481 52 160 482 176 161 483 175 161 484 90 161 485 176 162 486 169 162 487 184 162 488 47 163 489 6 163 490 32 163 491 32 164 492 6 164 493 29 164 494 98 165 495 4 165 496 101 165 497 42 166 498 93 166 499 120 166 500 120 167 501 33 167 502 2 167 503 92 168 504 36 168 505 0 168 506 113 169 507 40 169 508 92 169 509 28 170 510 91 170 511 178 170 512 178 171 513 50 171 514 10 171 515 169 172 516 20 172 517 172 172 518 173 173 519 89 173 520 185 173 521 89 174 522 48 174 523 185 174 524 48 175 525 18 175 526 185 175 527 161 176 528 88 176 529 54 176 530 54 177 531 12 177 532 161 177 533 158 178 534 87 178 535 55 178 536 55 179 537 21 179 538 158 179 539 123 180 540 111 180 541 15 180 542 141 181 543 85 181 544 58 181 545 58 182 546 16 182 547 141 182 548 139 183 549 84 183 550 59 183 551 59 184 552 22 184 553 139 184 554 61 185 555 83 185 556 156 185 557 83 186 558 37 186 559 156 186 560 136 187 561 82 187 562 62 187 563 62 188 564 13 188 565 136 188 566 133 189 567 81 189 568 63 189 569 63 190 570 23 190 571 133 190 572 99 191 573 17 191 574 102 191 575 66 192 576 11 192 577 41 192 578 67 193 579 24 193 580 68 193 581 44 194 582 14 194 583 69 194 584 70 195 585 14 195 586 44 195 587 71 196 588 25 196 589 72 196 590 73 197 591 74 197 592 100 197 593 74 198 594 35 198 595 100 198 596 71 199 597 74 199 598 73 199 599 18 200 600 48 200 601 74 200 602 74 201 603 48 201 604 98 201 605 48 202 606 4 202 607 98 202 608 111 203 609 45 203 610 75 203 611 75 204 612 72 204 613 111 204 614 114 205 615 0 205 616 36 205 617 36 206 618 75 206 619 114 206 620 18 207 621 71 207 622 75 207 623 76 208 624 44 208 625 2 208 626 112 209 627 15 209 628 72 209 629 72 210 630 76 210 631 112 210 632 25 211 633 70 211 634 76 211 635 77 212 636 69 212 637 24 212 638 42 213 639 77 213 640 67 213 641 42 214 642 2 214 643 44 214 644 34 215 645 78 215 646 68 215 647 34 216 648 3 216 649 152 216 650 152 217 651 30 217 652 78 217 653 30 218 654 12 218 655 67 218 656 68 219 657 79 219 658 46 219 659 24 220 660 66 220 661 79 220 662 23 221 663 63 221 664 103 221 665 63 222 666 80 222 667 103 222 668 29 223 669 80 223 670 63 223 671 80 224 672 29 224 673 104 224 674 29 225 675 6 225 676 104 225 677 133 226 678 64 226 679 128 226 680 149 227 681 134 227 682 81 227 683 134 228 684 41 228 685 11 228 686 11 229 687 63 229 688 134 229 689 136 230 690 31 230 691 125 230 692 137 231 693 82 231 694 138 231 695 137 232 696 64 232 697 23 232 698 23 233 699 62 233 700 137 233 701 83 234 702 61 234 703 22 234 704 9 235 705 39 235 706 83 235 707 83 236 708 39 236 709 153 236 710 39 237 711 1 237 712 153 237 713 139 238 714 60 238 715 127 238 716 9 239 717 59 239 718 84 239 719 141 240 720 46 240 721 132 240 722 142 241 723 85 241 724 143 241 725 142 242 726 60 242 727 22 242 728 22 243 729 58 243 730 142 243 731 21 244 732 55 244 733 116 244 734 55 245 735 86 245 736 116 245 737 55 246 738 10 246 739 117 246 740 10 247 741 40 247 742 117 247 743 122 248 744 114 248 745 45 248 746 168 249 747 158 249 748 56 249 749 167 250 750 159 250 751 87 250 752 159 251 753 28 251 754 10 251 755 10 252 756 55 252 757 159 252 758 161 253 759 30 253 760 152 253 761 165 254 762 162 254 763 88 254 764 162 255 765 56 255 766 21 255 767 21 256 768 54 256 769 162 256 770 173 257 771 53 257 772 170 257 773 51 258 774 13 258 775 174 258 776 13 259 777 43 259 778 174 259 779 89 260 780 43 260 781 101 260 782 101 261 783 4 261 784 89 261 785 9 262 786 27 262 787 52 262 788 27 263 789 90 263 790 175 263 791 27 264 792 5 264 793 90 264 794 5 265 795 125 265 796 90 265 797 90 266 798 31 266 799 176 266 800 31 267 801 13 267 802 176 267 803 1 268 804 39 268 805 91 268 806 91 269 807 28 269 808 151 269 809 39 270 810 9 270 811 52 270 812 177 271 813 91 271 814 39 271 815 171 272 816 50 272 817 178 272 818 10 273 819 50 273 820 180 273 821 180 274 822 92 274 823 40 274 824 179 275 825 92 275 826 180 275 827 179 276 828 53 276 829 185 276 830 185 277 831 18 277 832 36 277 833 36 278 834 92 278 835 185 278 836 54 279 837 93 279 838 42 279 839 54 280 840 21 280 841 119 280 842 21 281 843 57 281 844 119 281 845 121 282 846 112 282 847 33 282 848 94 283 849 34 283 850 16 283 851 61 284 852 94 284 853 58 284 854 13 285 855 62 285 856 105 285 857 62 286 858 95 286 859 105 286 860 62 287 861 23 287 862 106 287 863 23 288 864 65 288 865 106 288 866 100 289 867 35 289 868 107 289 869 66 290 870 96 290 871 29 290 872 69 291 873 96 291 874 66 291 875 69 292 876 14 292 877 32 292 878 97 293 879 32 293 880 14 293 881 73 294 882 97 294 883 70 294 884 97 295 885 73 295 886 99 295 887 73 296 888 17 296 889 99 296 890 108 297 891 107 297 892 95 297 893 102 298 894 108 298 895 106 298 896 17 299 897 100 299 898 108 299 899 109 300 900 102 300 901 65 300 902 104 301 903 109 301 904 103 301 905 47 302 906 99 302 907 109 302 908 105 303 909 110 303 910 101 303 911 95 304 912 107 304 913 110 304 914 35 305 915 98 305 916 110 305 917 119 306 918 121 306 919 120 306 920 57 307 921 115 307 922 121 307 923 115 308 924 15 308 925 112 308 926 122 309 927 118 309 928 86 309 929 113 310 930 122 310 931 117 310 932 113 311 933 0 311 934 114 311 935 116 312 936 123 312 937 115 312 938 86 313 939 118 313 940 123 313 941 118 314 942 45 314 943 111 314 944 144 315 945 143 315 946 26 315 947 127 316 948 144 316 949 129 316 950 60 317 951 142 317 952 144 317 953 145 318 954 132 318 955 7 318 956 143 319 957 145 319 958 124 319 959 85 320 960 141 320 961 145 320 962 130 321 963 5 321 964 27 321 965 27 322 966 84 322 967 130 322 968 146 323 969 127 323 970 8 323 971 140 324 972 146 324 973 126 324 974 84 325 975 139 325 976 146 325 977 126 326 978 147 326 979 138 326 980 8 327 981 128 327 982 147 327 983 64 328 984 137 328 985 147 328 986 148 329 987 125 329 988 5 329 989 138 330 990 148 330 991 130 330 992 82 331 993 136 331 994 148 331 995 124 332 996 149 332 997 135 332 998 7 333 999 131 333 1000 149 333 1001 131 334 1002 41 334 1003 134 334 1004 150 335 1005 128 335 1006 8 335 1007 135 336 1008 150 336 1009 129 336 1010 81 337 1011 133 337 1012 150 337 1013 132 338 1014 46 338 1015 79 338 1016 79 339 1017 41 339 1018 131 339 1019 94 340 1020 61 340 1021 154 340 1022 61 341 1023 19 341 1024 154 341 1025 154 342 1026 165 342 1027 163 342 1028 19 343 1029 155 343 1030 165 343 1031 155 344 1032 56 344 1033 162 344 1034 166 345 1035 152 345 1036 3 345 1037 163 346 1038 166 346 1039 157 346 1040 88 347 1041 161 347 1042 166 347 1043 153 348 1044 167 348 1045 160 348 1046 1 349 1047 151 349 1048 167 349 1049 151 350 1050 28 350 1051 159 350 1052 168 351 1053 155 351 1054 19 351 1055 160 352 1056 168 352 1057 156 352 1058 160 353 1059 87 353 1060 158 353 1061 34 354 1062 94 354 1063 164 354 1064 164 355 1065 157 355 1066 34 355 1067 171 356 1068 181 356 1069 180 356 1070 170 357 1071 181 357 1072 171 357 1073 170 358 1074 53 358 1075 179 358 1076 177 359 1077 182 359 1078 178 359 1079 172 360 1080 182 360 1081 177 360 1082 172 361 1083 20 361 1084 171 361 1085 169 362 1086 183 362 1087 170 362 1088 174 363 1089 183 363 1090 169 363 1091 174 364 1092 89 364 1093 173 364 1094 175 365 1095 184 365 1096 172 365 1097 176 366 1098 184 366 1099 175 366 1100 176 367 1101 51 367 1102 169 367 1103</p>
        </triangles>
      </mesh>
    </geometry>
  </library_geometries>
  <library_visual_scenes>
    <visual_scene id="Scene" name="Scene">
      <node id="Cube" name="Cube" type="NODE">
        <matrix sid="transform">1 0 0 0 0 1 0 0 0 0 1 0 0 0 0 1</matrix>
        <instance_geometry url="#Cube-mesh" name="Cube">
          <bind_material>
            <technique_common>
              <instance_material symbol="Material-material" target="#Material-material">
                <bind_vertex_input semantic="UVMap" input_semantic="TEXCOORD" input_set="0"/>
              </instance_material>
            </technique_common>
          </bind_material>
        </instance_geometry>
      </node>
    </visual_scene>
  </library_visual_scenes>
  <scene>
    <instance_visual_scene url="#Scene"/>
  </scene>
</COLLADA>