<?xml version="1.0" encoding="utf-8"?>
<COLLADA xmlns="http://www.collada.org/2005/11/COLLADASchema" version="1.4.1" xmlns:xsi="http://www.w3.org/2001/XMLSchema-instance">
  <asset>
    <contributor>
      <author>Blender User</author>
      <authoring_tool>Blender 4.1.1 commit date:2024-04-15, commit time:15:11, hash:e1743a0317bc</authoring_tool>
    </contributor>
    <created>2024-08-17T18:49:44</created>
    <modified>2024-08-17T18:49:44</modified>
    <unit name="meter" meter="1"/>
    <up_axis>Z_UP</up_axis>
  </asset>
  <library_effects>
    <effect id="Material_001-effect">
      <profile_COMMON>
        <technique sid="common">
          <lambert>
            <emission>
              <color sid="emission">0 0 0 1</color>
            </emission>
            <diffuse>
              <color sid="diffuse">0.8 0.8 0.8 1</color>
            </diffuse>
            <index_of_refraction>
              <float sid="ior">1.45</float>
            </index_of_refraction>
          </lambert>
        </technique>
      </profile_COMMON>
    </effect>
    <effect id="Material-effect">
      <profile_COMMON>
        <technique sid="common">
          <lambert>
            <emission>
              <color sid="emission">0 0 0 1</color>
            </emission>
            <diffuse>
              <color sid="diffuse">0.8 0.8 0.8 1</color>
            </diffuse>
            <index_of_refraction>
              <float sid="ior">1.45</float>
            </index_of_refraction>
          </lambert>
        </technique>
      </profile_COMMON>
    </effect>
  </library_effects>
  <library_images/>
  <library_materials>
    <material id="Material_001-material" name="Material.001">
      <instance_effect url="#Material_001-effect"/>
    </material>
    <material id="Material-material" name="Material">
      <instance_effect url="#Material-effect"/>
    </material>
  </library_materials>
  <library_geometries>
    <geometry id="Cube_001-mesh" name="Cube.001">
      <mesh>
        <source id="Cube_001-mesh-positions">
          <float_array id="Cube_001-mesh-positions-array" count="99">0.70061 1 0.6087028 0.6849427 1 -0.5896846 -0.70061 1 0.6087028 -0.6849427 1 -0.5896846 -0.570623 0 -0.5342473 0 1 -1 0.8454661 2.043821 0 -0.8454661 2.043821 0 0.70061 0 0.6087028 -0.70061 0 0.6087028 0 1 1 0.570623 0 -0.5342473 0 8.880388 0 1 0 0 0 0 -1 -1 0 0 0 0 1 -0.370168 2.803853 -0.6248679 0.6641229 2.803853 -0.330913 -0.6641229 2.803853 -0.330913 0.5 1 1 0.370168 2.803853 -0.6248679 0.6705791 2.803853 0.3387503 -0.6705791 2.803853 0.3387503 -0.5 1 1 0.5 5.377323 0 -0.5 5.377323 0 0 5.377323 -0.5 0 5.377323 0.5 -0.5 5.377323 0.5 -0.5 5.377323 -0.5 0.5 5.377323 -0.5 0.5 5.377323 0.5</float_array>
          <technique_common>
            <accessor source="#Cube_001-mesh-positions-array" count="33" stride="3">
              <param name="X" type="float"/>
              <param name="Y" type="float"/>
              <param name="Z" type="float"/>
            </accessor>
          </technique_common>
        </source>
        <source id="Cube_001-mesh-normals">
          <float_array id="Cube_001-mesh-normals-array" count="150">-0.9392717 0.06603449 0.3367614 0.9356608 0.04004967 0.3506209 0.9979726 0.0636456 0 0 1 0 0 0.1134871 0.9935396 0.9242629 0.06988376 -0.3753057 0.8973337 0 0.4413529 -0.632326 0 -0.7747024 0.5110175 -0.1057099 -0.8530455 -0.9290918 0.06300467 -0.3644432 0.4737358 -0.2368679 0.8482147 -0.4737358 -0.2368679 0.8482147 -0.7035327 0.1004167 0.7035327 -0.957275 0.0992068 0.2716295 -0.9356608 0.04004967 0.3506209 -0.4132651 0.1033425 -0.9047278 -0.7028979 0.1089468 -0.7028977 -0.9979726 0.0636456 0 0.7028979 0.1089468 -0.7028977 0.4132652 0.1033425 -0.9047277 0.957275 0.0992068 0.2716296 0.7035327 0.1004167 0.7035327 0 -1 0 -0.936228 0.0707885 0.3441891 -0.8973337 0 0.4413529 0.8868126 0.08280366 0.4546504 0.9505162 0.09850633 -0.2946445 -0.7035327 0.1004167 -0.7035327 0.7735495 -0.1228978 -0.6217053 0.9290918 0.06300461 -0.3644432 0.936228 0.0707885 0.3441891 0.9392717 0.06603443 0.3367614 -0.5110175 -0.1057099 -0.8530455 -0.512535 0.07275038 -0.8555789 0.632326 0 -0.7747024 0.512535 0.07275038 -0.8555789 -0.7735495 -0.1228978 -0.6217053 -0.9242629 0.06988376 -0.3753057 0.8898686 0 0.4562172 0 0 1 -0.8898686 0 0.4562172 -0.9978106 0.06613856 0 -0.8868126 0.08280366 0.4546504 0 0.04846417 -0.998825 -0.7071062 -0.001363933 -0.7071061 -0.9505162 0.09850633 -0.2946445 0.7071062 -0.001363933 -0.7071061 0 0.04846417 -0.998825 0.7035327 0.1004167 -0.7035327 0.9978106 0.06613856 0</float_array>
          <technique_common>
            <accessor source="#Cube_001-mesh-normals-array" count="50" stride="3">
              <param name="X" type="float"/>
              <param name="Y" type="float"/>
              <param name="Z" type="float"/>
            </accessor>
          </technique_common>
        </source>
        <source id="Cube_001-mesh-map-0">
          <float_array id="Cube_001-mesh-map-0-array" count="372">0.625 0.25 0.5625 0.25 0.5 0.25 0.625 0.4375 0.5625 0.5 0.5625 0.4375 0.5 0.4375 0.4375 0.5 0.4375 0.4375 0.5 0.3125 0.4375 0.375 0.4375 0.3125 0.625 0.3125 0.5625 0.375 0.5625 0.3125 0.5 0.625 0.375 0.5 0.5 0.5 0.625 0.5 0.625 0.625 0.5 0.625 0.25 0.5 0.25 0.625 0.125 0.625 0.375 0.625 0.25 0.5 0.375 0.5 0.5 0.25 0.4375 0.25 0.375 0.25 0.6875 0.5 0.75 0.625 0.625 0.625 0.8125 0.5 0.8750001 0.625 0.75 0.625 0.5 0.3125 0.5625 0.375 0.5 0.375 0.5625 0.25 0.5 0.3125 0.5 0.25 0.5625 0.25 0.625 0.3125 0.5625 0.3125 0.375 0.3125 0.4375 0.375 0.375 0.375 0.4375 0.25 0.375 0.3125 0.375 0.25 0.4375 0.25 0.5 0.3125 0.4375 0.3125 0.375 0.4375 0.4375 0.5 0.375 0.5 0.4375 0.375 0.375 0.4375 0.375 0.375 0.4375 0.375 0.5 0.4375 0.4375 0.4375 0.5 0.4375 0.5625 0.5 0.5 0.5 0.5625 0.375 0.5 0.4375 0.5 0.375 0.625 0.375 0.5625 0.4375 0.5625 0.375 0.625 0.125 0.5 0.125 0.125 0.625 0.5 0.25 0.5 0.125 0.625 0.25 0.5 0.125 0.625 0.125 0.625 0.25 0.625 0.4375 0.625 0.5 0.5625 0.5 0.5 0.4375 0.5 0.5 0.4375 0.5 0.5 0.3125 0.5 0.375 0.4375 0.375 0.625 0.3125 0.625 0.375 0.5625 0.375 0.375 0.625 0.375 0.5 0.5 0.625 0.375 0.5 0.4375 0.5 0.5 0.5 0.5 0.625 0.5 0.5 0.625 0.5 0.5 0.5 0.5625 0.5 0.625 0.5 0.125 0.625 0.125 0.5 0.25 0.5 0.125 0.5 0.1875 0.5 0.25 0.5 0.25 0.625 0.25 0.5 0.375 0.625 0.25 0.5 0.3125 0.5 0.375 0.5 0.375 0.25 0.375 0.125 0.5 0.125 0.5 0.125 0.5 0.25 0.375 0.25 0.625 0.625 0.625 0.5 0.6875 0.5 0.6875 0.5 0.75 0.5 0.75 0.625 0.75 0.625 0.75 0.5 0.8125 0.5 0.8125 0.5 0.8750001 0.5 0.8750001 0.625 0.5 0.3125 0.5625 0.3125 0.5625 0.375 0.5625 0.25 0.5625 0.3125 0.5 0.3125 0.5625 0.25 0.625 0.25 0.625 0.3125 0.375 0.3125 0.4375 0.3125 0.4375 0.375 0.4375 0.25 0.4375 0.3125 0.375 0.3125 0.4375 0.25 0.5 0.25 0.5 0.3125 0.375 0.4375 0.4375 0.4375 0.4375 0.5 0.4375 0.375 0.4375 0.4375 0.375 0.4375 0.4375 0.375 0.5 0.375 0.5 0.4375 0.5 0.4375 0.5625 0.4375 0.5625 0.5 0.5625 0.375 0.5625 0.4375 0.5 0.4375 0.625 0.375 0.625 0.4375 0.5625 0.4375 0.25 0.625 0.375 0.625 0.125 0.625 0.375 0.625 0.5 0.625 0.625 0.625 0.125 0.625 0.625 0.625 0.625 0.125 0.625 0.625 0.75 0.625 0.625 0.125 0.375 0.625 0.625 0.625 0.125 0.625</float_array>
          <technique_common>
            <accessor source="#Cube_001-mesh-map-0-array" count="186" stride="2">
              <param name="S" type="float"/>
              <param name="T" type="float"/>
            </accessor>
          </technique_common>
        </source>
        <vertices id="Cube_001-mesh-vertices">
          <input semantic="POSITION" source="#Cube_001-mesh-positions"/>
        </vertices>
        <triangles material="Material_001-material" count="62">
          <input semantic="VERTEX" source="#Cube_001-mesh-vertices" offset="0"/>
          <input semantic="NORMAL" source="#Cube_001-mesh-normals" offset="1"/>
          <input semantic="TEXCOORD" source="#Cube_001-mesh-map-0" offset="2" set="0"/>
          <p>2 0 0 23 0 1 7 0 2 20 1 3 22 1 4 32 1 5 25 2 6 18 2 7 31 2 8 26 3 9 27 3 10 30 3 11 24 4 12 28 4 13 29 4 14 13 5 15 1 5 16 6 5 17 0 6 18 8 6 19 13 6 20 5 7 21 14 7 22 4 7 23 11 8 24 5 8 25 1 8 26 7 9 27 19 9 28 3 9 29 20 10 30 16 10 31 8 10 32 24 11 33 9 11 34 16 11 35 26 12 36 28 12 37 12 12 38 23 13 39 26 13 40 7 13 41 23 14 42 24 14 43 29 14 44 17 15 45 27 15 46 5 15 47 19 16 48 17 16 49 3 16 50 19 17 51 26 17 52 30 17 53 21 18 54 18 18 55 1 18 56 27 19 57 21 19 58 5 19 59 27 3 60 25 3 61 31 3 62 25 20 63 22 20 64 6 20 65 28 21 66 25 21 67 12 21 68 10 4 69 32 4 70 28 4 71 9 22 72 15 22 73 4 22 74 7 23 75 15 23 76 2 23 77 15 24 78 9 24 79 2 24 80 20 25 81 0 25 82 22 25 83 25 26 84 6 26 85 18 26 86 26 27 87 12 27 88 27 27 89 24 4 90 10 4 91 28 4 92 11 28 93 1 28 94 13 28 95 1 29 96 18 29 97 6 29 98 13 30 99 6 30 100 0 30 101 6 31 102 22 31 103 0 31 104 4 32 105 3 32 106 5 32 107 3 33 108 17 33 109 5 33 110 14 34 111 5 34 112 11 34 113 5 35 114 21 35 115 1 35 116 3 36 117 4 36 118 15 36 119 15 37 120 7 37 121 3 37 122 8 38 123 0 38 124 20 38 125 20 39 126 10 39 127 16 39 128 16 39 129 10 39 130 24 39 131 24 40 132 2 40 133 9 40 134 26 3 135 29 3 136 28 3 137 23 41 138 29 41 139 26 41 140 23 42 141 2 42 142 24 42 143 17 43 144 30 43 145 27 43 146 19 44 147 30 44 148 17 44 149 19 45 150 7 45 151 26 45 152 21 46 153 31 46 154 18 46 155 27 47 156 31 47 157 21 47 158 27 48 159 12 48 160 25 48 161 25 49 162 32 49 163 22 49 164 28 3 165 32 3 166 25 3 167 10 4 168 20 4 169 32 4 170 14 22 171 11 22 172 4 22 173 11 22 174 13 22 175 8 22 176 4 22 177 8 22 178 9 22 179 8 22 180 16 22 181 9 22 182 11 22 183 8 22 184 4 22 185</p>
        </triangles>
      </mesh>
    </geometry>
    <geometry id="Cube-mesh" name="Cube">
      <mesh>
        <source id="Cube-mesh-positions">
          <float_array id="Cube-mesh-positions-array" count="270">0.70061 -1 0.6087028 0.6849427 -1 -0.5896846 -0.70061 -1 0.6087028 -0.6849427 -1 -0.5896846 -0.570623 0 -0.5342473 -1 -1 0 1 -1 0 0 -1 1 0.70061 0 0.6087028 0 -1 -1 -0.70061 0 0.6087028 0.570623 0 -0.5342473 1 0 0 0 0 -1 -1 0 0 0 -2.598453 0 0 0 1 -1 -1 0.5 1 -1 -0.5 -0.5 -1 1 0.5 -1 -1 -1 -1 -0.5 1 -1 0.5 0.5 -1 1 -0.5 -1 -1 -0.5 -4.820363 0 0.5 -4.820363 0 0 -4.820363 -0.5 0 -4.820363 0.5 0.5 -4.820363 0.5 0.5 -4.820363 -0.5 -0.5 -4.820363 -0.5 -0.5 -4.820363 0.5 0.8424714 -1 -0.5448423 1 -1 0.25 1 -1 -0.25 1.177659 -3.195387 0 0.25 -4.820363 0.5 1.177659 -3.195387 0.5 0.5 -4.820363 0.25 1.177659 -3.195387 -0.5 0.5 -4.820363 -0.25 -0.25 -4.820363 0.5 1.177659 -3.195387 -0.25 1.177659 -3.195387 0.25 0.8924527 -2.211441 0 0.8924527 -3.031862 0.5 0.5 -4.820363 0.125 0.8924527 -3.031862 -0.5 0.5 -4.820363 -0.375 0.5 -4.820363 0.375 0.5 -4.820363 -0.125 0.8924527 -2.211441 -0.25 1.177659 -3.195387 -0.375 1.177659 -3.195387 -0.125 0.8924527 -2.298261 0.25 1.177659 -3.195387 0.125 1.177659 -3.195387 0.375 0.8924527 -2.455967 0.125 0.8924527 -3.031862 -0.375 0.8924527 -2.211441 -0.125 0.8924527 -3.031862 0.375 -0.850305 -1 0.5543514 -1 -1 -0.25 -1.177659 -3.195387 0 -1 -1 0.25 -0.8424714 -1 -0.5448423 -1.177659 -3.195387 -0.5 -0.5 -4.820363 -0.25 -1.177659 -3.195387 0.5 -0.5 -4.820363 0.25 -1.177659 -3.195387 0.25 -1.177659 -3.195387 -0.25 -0.5 -4.820363 -0.375 -0.5 -4.820363 0.125 -0.8924527 -2.211441 0 -0.8924527 -3.031862 -0.5 -0.5 -4.820363 -0.125 -0.8924527 -3.031862 0.5 -0.5 -4.820363 0.375 -0.8924527 -2.298261 0.25 -1.177659 -3.195387 0.125 -1.177659 -3.195387 0.375 -0.8924527 -2.211441 -0.25 -1.177659 -3.195387 -0.375 -1.177659 -3.195387 -0.125 -0.8924527 -2.211441 -0.125 -0.8924527 -3.031862 -0.375 -0.8924527 -3.031862 0.375 -0.8924527 -2.455967 0.125</float_array>
          <technique_common>
            <accessor source="#Cube-mesh-positions-array" count="90" stride="3">
              <param name="X" type="float"/>
              <param name="Y" type="float"/>
              <param name="Z" type="float"/>
            </accessor>
          </technique_common>
        </source>
        <source id="Cube-mesh-normals">
          <float_array id="Cube-mesh-normals-array" count="528">-0.8898685 0 0.4562171 -0.3411517 0.02760726 0.9396027 0.9044066 0.1259902 -0.4076458 0.957987 0.2868117 0 0 1 0 0 0 -1 0 1 0 0 1 0 -0.9967417 0.08066004 0 0 -1 0 0 -0.1297709 0.991544 0 0 1 0 -1 0 0.976761 -0.2143316 0 0.5090407 -0.1116993 0.853464 0 -0.1297709 -0.991544 0.2737175 0.02215021 -0.9615551 0.9888743 -0.1487535 0 -0.2737175 0.02215021 -0.9615551 0 -0.1297709 -0.991544 0 -1 0 -0.9967417 0.08066004 0 0 -1 0 0 -0.1297709 0.991544 0.976761 -0.2143316 0 0.9967417 0.08066004 0 0.9967417 0.08066004 0 0.9091201 0.07475972 -0.4097703 0.9865028 -0.163744 0 0.9967417 0.08066004 0 0.9967417 0.08066004 0 -0.5905074 -0.1771771 -0.7873433 0.8567161 0.2377464 -0.4577271 0.9494909 -0.1428292 -0.2794045 -0.8434875 -0.2444927 -0.4782804 -0.9330011 -0.3598735 0 0.976761 -0.2143316 0 -0.4974009 -0.8675208 0 -0.4974009 -0.8675208 0 0.9888743 -0.1487535 0 -0.9604652 -0.2783998 0 -0.9604652 -0.2783998 0 0.7335947 -0.1141513 -0.6699316 -0.4671614 -0.1485157 -0.8716096 -0.4974009 -0.8675208 0 -0.9967417 0.08066004 0 0.9330011 -0.3598735 0 0.4974009 -0.8675208 0 -0.2737558 -0.01449 -0.96169 -0.9967417 0.08066004 0 0.4974009 -0.8675208 0 0.9604652 -0.2783998 0 -0.8919206 0.1096726 0.4386905 -0.7700715 0.1547274 -0.6189098 -0.8882916 0.05950605 0.4554087 0.9604652 -0.2783998 0 -0.9888743 -0.1487535 0 -0.9888743 -0.1487535 0 0.4974009 -0.8675208 0 -0.976761 -0.2143316 0 -0.976761 -0.2143316 0 0.4671614 -0.1485157 -0.8716096 -0.7335947 -0.1141513 -0.6699316 -0.976761 -0.2143316 0 0.8434875 -0.2444927 -0.4782804 -0.9494909 -0.1428291 -0.2794045 -0.9865028 -0.163744 0 0 1 0 0 0 1 -0.4737358 0.2368679 0.8482146 0 0 -1 0.6029103 0.3014551 -0.7386636 1 0 0 0.8919206 0.1096726 0.4386905 0.3412818 0 0.9399611 -0.9044066 0.1259902 -0.4076458 -0.6029103 0.3014551 -0.7386636 -0.9967417 0.08066004 0 -0.9967417 0.08066004 0 0 -1 0 0 -1 0 -0.6983215 -0.1571444 0.6983215 0 -1 0 0 -0.1297709 0.991544 0 -0.1297709 0.991544 0.8898685 0 0.4562171 0.4737358 0.2368679 0.8482146 0 0 1 0.976761 -0.2143316 0 0 0 1 0.3412262 -0.01806122 0.9398077 0.8882916 0.05950605 0.4554087 0 -0.1297709 -0.991544 0.9888743 -0.1487535 0 0 -0.1297709 -0.991544 0 -1 0 0.6983215 -0.1571444 0.6983215 0 -1 0 0 -1 0 -0.9967417 0.08066004 0 -0.9967417 0.08066004 0 0.6983215 -0.1571444 -0.6983215 0 -1 0 0 -1 0 0 -1 0 0 -1 0 0 -0.1297709 0.991544 0 -0.1297709 0.991544 0.7075656 -0.106437 0.6985858 0.9967417 0.08066004 0 0.9967417 0.08066004 0 0.9967417 0.08066004 0 0.9967417 0.08066004 0 0.2737558 -0.01449 -0.96169 -0.01283049 -0.02237778 -0.9996672 0.5090407 -0.1116993 -0.853464 0.9700264 -0.1509413 0.1904349 0.9967417 0.08066004 0 0.9967417 0.08066004 0 0.9967417 0.08066004 0 0.9967417 0.08066004 0 -0.9756032 -0.2195415 0 0 -1 0 0 -1 0 0.2728096 0.08431667 -0.9583662 0.7700715 0.1547274 -0.6189098 1 0 0 0.9865028 -0.163744 0 -0.9330011 -0.3598735 0 -0.8901851 -0.2829996 0.357046 0.976761 -0.2143316 0 -0.4974009 -0.8675208 0 -0.4611012 -0.1336545 0.877224 0.9888743 -0.1487535 0 -0.9604652 -0.2783998 0 -0.9604652 -0.2783998 0 0.976761 -0.2143316 0 -0.4974009 -0.8675208 0 -0.4974009 -0.8675208 0 -0.9967417 0.08066004 0 -0.9967417 0.08066004 0 0.8901851 -0.2829996 0.357046 0.4974009 -0.8675208 0 -0.9091201 0.07475972 -0.4097704 -0.5090407 -0.1116993 -0.853464 0.01283049 -0.02237778 -0.9996672 -0.9967417 0.08066004 0 -0.9967417 0.08066004 0 0.4611012 -0.1336545 0.877224 0.9604652 -0.2783998 0 -1 0 0 -0.8919206 0.1096726 0.4386906 -0.3412819 0 0.9399611 -0.2728096 0.08431667 -0.9583662 -0.8567161 0.2377464 -0.4577271 -1 0 0 -0.5090407 -0.1116993 0.853464 -0.3412262 -0.01806122 0.9398077 0.01551413 -0.0270583 0.9995135 0.9604652 -0.2783998 0 -0.9888743 -0.1487535 0 -0.9888743 -0.1487535 0 0.4974009 -0.8675208 0 -0.976761 -0.2143316 0 -0.7075656 -0.106437 0.6985858 0.4974009 -0.8675208 0 -0.976761 -0.2143316 0 -0.976761 -0.2143316 0 0.9330011 -0.3598735 0 -0.9865028 -0.163744 0 -0.9700264 -0.1509413 0.1904349 0 1 0 0 1 0 0 1 0 0 1 0 0 1 0</float_array>
          <technique_common>
            <accessor source="#Cube-mesh-normals-array" count="176" stride="3">
              <param name="X" type="float"/>
              <param name="Y" type="float"/>
              <param name="Z" type="float"/>
            </accessor>
          </technique_common>
        </source>
        <source id="Cube-mesh-map-0">
          <float_array id="Cube-mesh-map-0-array" count="1056">0.875 0.625 0.875 0.75 0.8125 0.75 0.5625 0.96875 0.59375 1 0.5625 1 0.375 0.625 0.375 0.75 0.3125 0.75 0.625 0.625 0.5625 0.75 0.53125 0.75 0.40625 0.75 0.46875 0.75 0.4375 0.75 0.25 0.625 0.25 0.75 0.1875 0.75 0.40625 0 0.4375 0 0.46875 0 0.53125 0 0.5625 0 0.59375 0 0.484375 0.96875 0.5 1 0.46875 1 0.484375 0.8125 0.5 0.8125 0.4375 0.875 0.625 0.875 0.5625 0.875 0.5625 0.84375 0.75 0.625 0.75 0.75 0.6875 0.75 0.53125 0.8125 0.5625 0.8125 0.5625 0.84375 0.5625 0.796875 0.546875 0.8125 0.546875 0.796875 0.625 0.8125 0.5625 0.8125 0.5625 0.796875 0.4375 0.8125 0.375 0.875 0.375 0.8125 0.40625 0.75 0.4375 0.75 0.4375 0.78125 0.5 0.796875 0.484375 0.8125 0.484375 0.796875 0.40625 1 0.4375 0.96875 0.4375 1 0.4375 0.875 0.375 0.9375 0.375 0.875 0.484375 0.9375 0.46875 0.9375 0.4375 0.875 0.546875 0.96875 0.5625 1 0.53125 1 0.5625 0.90625 0.53125 0.9375 0.515625 0.9375 0.625 0.9375 0.5625 0.9375 0.5625 0.90625 0.453125 0.796875 0.46875 0.8125 0.453125 0.8125 0.46875 0.75 0.46875 0.78125 0.453125 0.78125 0.5 0.75 0.5 0.78125 0.484375 0.78125 0.375 0.75 0.4375 0.796875 0.375 0.8125 0.515625 0.796875 0.53125 0.8125 0.515625 0.8125 0.53125 0.75 0.53125 0.78125 0.515625 0.78125 0.5625 0.75 0.5625 0.78125 0.546875 0.78125 0.5625 0.875 0.5 0.875 0.515625 0.8125 0.46875 0.75 0.40625 0.75 0.375 0.625 0.515625 0.796875 0.5 0.8125 0.5 0.796875 0.5 0.78125 0.515625 0.796875 0.5 0.796875 0.53125 0.78125 0.515625 0.796875 0.515625 0.78125 0.453125 0.796875 0.4375 0.8125 0.4375 0.796875 0.453125 0.78125 0.4375 0.796875 0.4375 0.78125 0.46875 0.78125 0.453125 0.796875 0.453125 0.78125 0.484375 0.796875 0.46875 0.8125 0.46875 0.796875 0.484375 0.78125 0.46875 0.796875 0.46875 0.78125 0.5 0.78125 0.484375 0.796875 0.484375 0.78125 0.546875 0.796875 0.53125 0.8125 0.53125 0.796875 0.53125 0.78125 0.546875 0.796875 0.53125 0.796875 0.5625 0.78125 0.546875 0.796875 0.546875 0.78125 0.515625 0.96875 0.53125 1 0.5 1 0.515625 0.953125 0.53125 0.96875 0.515625 0.96875 0.5625 0.953125 0.546875 0.96875 0.546875 0.953125 0.4375 0.953125 0.40625 1 0.375 1 0.453125 0.96875 0.46875 1 0.4375 1 0.453125 0.953125 0.46875 0.96875 0.453125 0.96875 0.5 0.953125 0.484375 0.96875 0.484375 0.953125 0.625 0.125 0.5 0.125 0.53125 0 0.375 0.125 0.46875 0 0.5 0.125 0.5625 0.953125 0.625 0.9375 0.625 1 0.484375 0.953125 0.46875 0.96875 0.46875 0.953125 0.484375 0.9375 0.46875 0.953125 0.46875 0.9375 0.5 0.9375 0.484375 0.953125 0.484375 0.9375 0.453125 0.953125 0.4375 0.96875 0.4375 0.953125 0.453125 0.9375 0.4375 0.953125 0.4375 0.9375 0.46875 0.9375 0.453125 0.953125 0.453125 0.9375 0.546875 0.953125 0.53125 0.96875 0.53125 0.953125 0.53125 0.9375 0.546875 0.953125 0.53125 0.953125 0.5625 0.9375 0.546875 0.953125 0.546875 0.9375 0.515625 0.953125 0.5 0.96875 0.5 0.953125 0.5 0.9375 0.515625 0.953125 0.5 0.953125 0.53125 0.9375 0.515625 0.953125 0.515625 0.9375 0.125 0.625 0.625 0.625 0.375 0.625 0.75 0.75 0.75 0.625 0.8125 0.75 0.75 0.625 0.875 0.625 0.8125 0.75 0.25 0.75 0.25 0.625 0.3125 0.75 0.25 0.625 0.375 0.625 0.3125 0.75 0.5 0.75 0.5 0.625 0.53125 0.75 0.5 0.625 0.625 0.625 0.53125 0.75 0.625 0.625 0.625 0.75 0.5625 0.75 0.125 0.75 0.125 0.625 0.1875 0.75 0.125 0.625 0.25 0.625 0.1875 0.75 0.46875 1 0.46875 0.96875 0.484375 0.96875 0.484375 0.96875 0.5 0.96875 0.5 1 0.4375 0.875 0.4375 0.8125 0.453125 0.8125 0.4375 0.875 0.453125 0.8125 0.46875 0.8125 0.5 0.8125 0.5 0.875 0.4375 0.875 0.4375 0.875 0.46875 0.8125 0.484375 0.8125 0.5625 0.84375 0.5625 0.8125 0.625 0.8125 0.625 0.8125 0.625 0.875 0.5625 0.84375 0.625 0.75 0.625 0.625 0.6875 0.75 0.625 0.625 0.75 0.625 0.6875 0.75 0.53125 0.8125 0.546875 0.8125 0.5625 0.8125 0.5625 0.796875 0.5625 0.8125 0.546875 0.8125 0.5625 0.78125 0.5625 0.75 0.5625 0.796875 0.5625 0.75 0.625 0.75 0.5625 0.796875 0.625 0.75 0.625 0.8125 0.5625 0.796875 0.4375 0.8125 0.4375 0.875 0.375 0.875 0.5 0.796875 0.5 0.8125 0.484375 0.8125 0.4375 0.875 0.4375 0.9375 0.375 0.9375 0.4375 0.9375 0.4375 0.875 0.453125 0.9375 0.4375 0.875 0.5 0.875 0.5 0.9375 0.453125 0.9375 0.4375 0.875 0.46875 0.9375 0.5 0.9375 0.484375 0.9375 0.4375 0.875 0.53125 1 0.53125 0.96875 0.546875 0.96875 0.546875 0.96875 0.5625 0.96875 0.5625 1 0.5 0.9375 0.5 0.875 0.5625 0.875 0.5625 0.90625 0.5625 0.9375 0.546875 0.9375 0.5 0.9375 0.5625 0.875 0.515625 0.9375 0.5625 0.875 0.5625 0.90625 0.515625 0.9375 0.5625 0.90625 0.546875 0.9375 0.53125 0.9375 0.5625 0.90625 0.5625 0.875 0.625 0.875 0.625 0.875 0.625 0.9375 0.5625 0.90625 0.453125 0.796875 0.46875 0.796875 0.46875 0.8125 0.4375 0.78125 0.4375 0.75 0.453125 0.78125 0.4375 0.75 0.46875 0.75 0.453125 0.78125 0.46875 0.78125 0.46875 0.75 0.484375 0.78125 0.46875 0.75 0.5 0.75 0.484375 0.78125 0.375 0.75 0.40625 0.75 0.4375 0.796875 0.40625 0.75 0.4375 0.78125 0.4375 0.796875 0.4375 0.796875 0.4375 0.8125 0.375 0.8125 0.515625 0.796875 0.53125 0.796875 0.53125 0.8125 0.5 0.78125 0.5 0.75 0.515625 0.78125 0.5 0.75 0.53125 0.75 0.515625 0.78125 0.53125 0.78125 0.53125 0.75 0.546875 0.78125 0.53125 0.75 0.5625 0.75 0.546875 0.78125 0.5 0.875 0.5 0.8125 0.515625 0.8125 0.515625 0.8125 0.53125 0.8125 0.5625 0.84375 0.5625 0.84375 0.5625 0.875 0.515625 0.8125 0.375 0.75 0.375 0.625 0.40625 0.75 0.375 0.625 0.5 0.625 0.46875 0.75 0.5 0.625 0.5 0.75 0.46875 0.75 0.515625 0.796875 0.515625 0.8125 0.5 0.8125 0.5 0.78125 0.515625 0.78125 0.515625 0.796875 0.53125 0.78125 0.53125 0.796875 0.515625 0.796875 0.453125 0.796875 0.453125 0.8125 0.4375 0.8125 0.453125 0.78125 0.453125 0.796875 0.4375 0.796875 0.46875 0.78125 0.46875 0.796875 0.453125 0.796875 0.484375 0.796875 0.484375 0.8125 0.46875 0.8125 0.484375 0.78125 0.484375 0.796875 0.46875 0.796875 0.5 0.78125 0.5 0.796875 0.484375 0.796875 0.546875 0.796875 0.546875 0.8125 0.53125 0.8125 0.53125 0.78125 0.546875 0.78125 0.546875 0.796875 0.5625 0.78125 0.5625 0.796875 0.546875 0.796875 0.5 1 0.5 0.96875 0.515625 0.96875 0.515625 0.96875 0.53125 0.96875 0.53125 1 0.515625 0.953125 0.53125 0.953125 0.53125 0.96875 0.5625 0.953125 0.5625 0.96875 0.546875 0.96875 0.375 1 0.375 0.9375 0.4375 0.953125 0.375 0.9375 0.4375 0.9375 0.4375 0.953125 0.4375 0.953125 0.4375 0.96875 0.40625 1 0.4375 1 0.4375 0.96875 0.453125 0.96875 0.453125 0.96875 0.46875 0.96875 0.46875 1 0.453125 0.953125 0.46875 0.953125 0.46875 0.96875 0.5 0.953125 0.5 0.96875 0.484375 0.96875 0.5 0.125 0.5 0 0.53125 0 0.53125 0 0.59375 0 0.625 0.125 0.59375 0 0.625 0 0.625 0.125 0.375 0.125 0.375 0 0.40625 0 0.40625 0 0.46875 0 0.375 0.125 0.46875 0 0.5 0 0.5 0.125 0.5625 0.953125 0.5625 0.9375 0.625 0.9375 0.625 1 0.59375 1 0.5625 0.953125 0.59375 1 0.5625 0.96875 0.5625 0.953125 0.484375 0.953125 0.484375 0.96875 0.46875 0.96875 0.484375 0.9375 0.484375 0.953125 0.46875 0.953125 0.5 0.9375 0.5 0.953125 0.484375 0.953125 0.453125 0.953125 0.453125 0.96875 0.4375 0.96875 0.453125 0.9375 0.453125 0.953125 0.4375 0.953125 0.46875 0.9375 0.46875 0.953125 0.453125 0.953125 0.546875 0.953125 0.546875 0.96875 0.53125 0.96875 0.53125 0.9375 0.546875 0.9375 0.546875 0.953125 0.5625 0.9375 0.5625 0.953125 0.546875 0.953125 0.515625 0.953125 0.515625 0.96875 0.5 0.96875 0.5 0.9375 0.515625 0.9375 0.515625 0.953125 0.53125 0.9375 0.53125 0.953125 0.515625 0.953125 0.5 0.625 0.375 0.625 0.625 0.625 0.375 0.625 0.25 0.625 0.125 0.625 0.125 0.625 0.5 0.125 0.625 0.125 0.625 0.125 0.75 0.625 0.625 0.625 0.125 0.625 0.625 0.125 0.625 0.625</float_array>
          <technique_common>
            <accessor source="#Cube-mesh-map-0-array" count="528" stride="2">
              <param name="S" type="float"/>
              <param name="T" type="float"/>
            </accessor>
          </technique_common>
        </source>
        <vertices id="Cube-mesh-vertices">
          <input semantic="POSITION" source="#Cube-mesh-positions"/>
        </vertices>
        <triangles material="Material-material" count="176">
          <input semantic="VERTEX" source="#Cube-mesh-vertices" offset="0"/>
          <input semantic="NORMAL" source="#Cube-mesh-normals" offset="1"/>
          <input semantic="TEXCOORD" source="#Cube-mesh-map-0" offset="2" set="0"/>
          <p>10 0 0 2 0 1 19 0 2 69 1 3 62 1 4 17 1 5 11 2 6 1 2 7 20 2 8 8 3 9 22 3 10 34 3 11 33 4 12 35 4 13 18 4 14 13 5 15 9 5 16 24 5 17 66 6 18 21 6 19 63 6 20 65 7 21 17 7 22 62 7 23 85 8 24 5 8 25 63 8 26 51 9 27 26 9 28 27 9 29 7 10 30 28 10 31 37 10 32 16 11 33 7 11 34 23 11 35 39 12 36 29 12 37 37 12 38 46 13 39 50 13 40 61 13 41 23 14 42 29 14 43 46 14 44 30 15 45 9 15 46 20 15 47 33 16 48 18 16 49 40 16 50 45 17 51 51 17 52 60 17 53 66 18 54 67 18 55 21 18 56 27 19 57 24 19 58 9 19 59 77 20 60 68 20 61 27 20 62 82 21 63 17 21 64 65 21 65 42 22 66 70 22 67 74 22 68 19 23 69 32 23 70 42 23 71 59 24 72 41 24 73 49 24 74 35 25 75 43 25 76 53 25 77 6 26 78 36 26 79 54 26 80 1 27 81 48 27 82 20 27 83 58 28 84 39 28 85 47 28 86 34 29 87 44 29 88 56 29 89 22 30 90 38 30 91 57 30 92 28 31 93 15 31 94 47 31 95 35 32 96 33 32 97 11 32 98 58 33 99 26 33 100 45 33 101 36 34 102 58 34 103 45 34 104 44 35 105 58 35 106 56 35 107 59 36 108 30 36 109 48 36 110 53 37 111 48 37 112 40 37 113 43 38 114 59 38 115 53 38 116 60 39 117 41 39 118 52 39 119 54 40 120 52 40 121 43 40 122 36 41 123 60 41 124 54 41 125 61 42 126 39 42 127 55 42 128 44 43 129 61 43 130 55 43 131 38 44 132 61 44 133 57 44 134 81 45 135 65 45 136 5 45 137 89 46 138 71 46 139 81 46 140 78 47 141 82 47 142 88 47 143 76 48 144 66 48 145 3 48 146 84 49 147 63 49 148 21 49 149 87 50 150 72 50 151 84 50 152 75 51 153 85 51 154 86 51 155 10 52 156 14 52 157 65 52 158 4 53 159 63 53 160 14 53 161 78 54 162 19 54 163 2 54 164 86 55 165 72 55 166 83 55 167 77 56 168 83 56 169 68 56 170 25 57 171 86 57 172 77 57 173 87 58 174 67 58 175 76 58 176 73 59 177 76 59 178 31 59 179 68 60 180 87 60 181 73 60 182 88 61 183 71 61 184 80 61 185 70 62 186 88 62 187 80 62 188 32 63 189 88 63 190 79 63 191 89 64 192 64 64 193 75 64 194 25 65 195 89 65 196 75 65 197 70 66 198 89 66 199 74 66 200 4 67 201 8 67 202 11 67 203 7 68 204 16 68 205 19 68 206 16 69 207 10 69 208 19 69 209 9 70 210 13 70 211 20 70 212 13 71 213 11 71 214 20 71 215 6 72 216 12 72 217 34 72 218 12 73 219 8 73 220 34 73 221 8 74 222 0 74 223 22 74 224 3 75 225 4 75 226 24 75 227 4 76 228 13 76 229 24 76 230 63 77 231 72 77 232 85 77 233 85 78 234 64 78 235 5 78 236 27 79 237 30 79 238 49 79 239 27 80 240 49 80 241 41 80 242 26 81 243 15 81 244 27 81 245 27 82 246 41 82 247 51 82 248 37 83 249 29 83 250 23 83 251 23 84 252 7 84 253 37 84 254 0 85 255 8 85 256 23 85 257 8 86 258 16 86 259 23 86 260 39 87 261 50 87 262 29 87 263 46 88 264 29 88 265 50 88 266 38 89 267 22 89 268 46 89 269 22 90 270 0 90 271 46 90 272 0 91 273 23 91 274 46 91 275 30 92 276 27 92 277 9 92 278 45 93 279 26 93 280 51 93 281 27 94 282 31 94 283 24 94 284 31 95 285 27 95 286 73 95 287 27 96 288 15 96 289 25 96 290 73 97 291 27 97 292 68 97 293 25 98 294 77 98 295 27 98 296 65 99 297 71 99 298 82 99 299 82 100 300 69 100 301 17 100 302 25 101 303 15 101 304 28 101 305 42 102 306 32 102 307 79 102 308 25 103 309 28 103 310 74 103 311 28 104 312 42 104 313 74 104 314 42 105 315 79 105 316 70 105 317 42 106 318 28 106 319 7 106 320 7 107 321 19 107 322 42 107 323 59 108 324 52 108 325 41 108 326 40 109 327 18 109 328 53 109 329 18 110 330 35 110 331 53 110 332 43 111 333 35 111 334 54 111 335 35 112 336 6 112 337 54 112 338 1 113 339 33 113 340 48 113 341 33 114 342 40 114 343 48 114 344 48 115 345 30 115 346 20 115 347 58 116 348 55 116 349 39 116 350 36 117 351 6 117 352 56 117 353 6 118 354 34 118 355 56 118 356 44 119 357 34 119 358 57 119 359 34 120 360 22 120 361 57 120 362 15 121 363 26 121 364 47 121 365 47 122 366 39 122 367 37 122 368 37 123 369 28 123 370 47 123 371 1 124 372 11 124 373 33 124 374 11 125 375 12 125 376 35 125 377 12 126 378 6 126 379 35 126 380 58 127 381 47 127 382 26 127 383 36 128 384 56 128 385 58 128 386 44 129 387 55 129 388 58 129 389 59 130 390 49 130 391 30 130 392 53 131 393 59 131 394 48 131 395 43 132 396 52 132 397 59 132 398 60 133 399 51 133 400 41 133 401 54 134 402 60 134 403 52 134 404 36 135 405 45 135 406 60 135 407 61 136 408 50 136 409 39 136 410 44 137 411 57 137 412 61 137 413 38 138 414 46 138 415 61 138 416 5 139 417 64 139 418 81 139 419 81 140 420 71 140 421 65 140 422 89 141 423 80 141 424 71 141 425 78 142 426 69 142 427 82 142 428 3 143 429 24 143 430 76 143 431 24 144 432 31 144 433 76 144 434 76 145 435 67 145 436 66 145 437 21 146 438 67 146 439 84 146 440 84 147 441 72 147 442 63 147 443 87 148 444 83 148 445 72 148 446 75 149 447 64 149 448 85 149 449 14 150 450 5 150 451 65 150 452 65 151 453 62 151 454 10 151 455 62 152 456 2 152 457 10 152 458 4 153 459 3 153 460 66 153 461 66 154 462 63 154 463 4 154 464 63 155 465 5 155 466 14 155 467 78 156 468 32 156 469 19 156 470 2 157 471 62 157 472 78 157 473 62 158 474 69 158 475 78 158 476 86 159 477 85 159 478 72 159 479 77 160 480 86 160 481 83 160 482 25 161 483 75 161 484 86 161 485 87 162 486 84 162 487 67 162 488 73 163 489 87 163 490 76 163 491 68 164 492 83 164 493 87 164 494 88 165 495 82 165 496 71 165 497 70 166 498 79 166 499 88 166 500 32 167 501 78 167 502 88 167 503 89 168 504 81 168 505 64 168 506 25 169 507 74 169 508 89 169 509 70 170 510 80 170 511 89 170 512 12 171 513 11 171 514 8 171 515 11 172 516 13 172 517 4 172 518 4 173 519 14 173 520 10 173 521 10 174 522 16 174 523 8 174 524 4 175 525 10 175 526 8 175 527</p>
        </triangles>
      </mesh>
    </geometry>
  </library_geometries>
  <library_visual_scenes>
    <visual_scene id="Scene" name="Scene">
      <node id="Cube_001" name="Cube.001" type="NODE">
        <matrix sid="transform">-0.9999906 0.004322603 0 0 -0.004322603 -0.9999906 0 0 0 0 1 0 0 0 0 1</matrix>
        <instance_geometry url="#Cube_001-mesh" name="Cube.001">
          <bind_material>
            <technique_common>
              <instance_material symbol="Material_001-material" target="#Material_001-material">
                <bind_vertex_input semantic="Cube-mesh-map-0" input_semantic="TEXCOORD" input_set="0"/>
              </instance_material>
            </technique_common>
          </bind_material>
        </instance_geometry>
      </node>
      <node id="Cube" name="Cube" type="NODE">
        <matrix sid="transform">-0.9999906 0.004322603 0 0 -0.004322603 -0.9999906 0 0 0 0 1 0 0 0 0 1</matrix>
        <instance_geometry url="#Cube-mesh" name="Cube">
          <bind_material>
            <technique_common>
              <instance_material symbol="Material-material" target="#Material-material">
                <bind_vertex_input semantic="UVMap" input_semantic="TEXCOORD" input_set="0"/>
              </instance_material>
            </technique_common>
          </bind_material>
        </instance_geometry>
      </node>
    </visual_scene>
  </library_visual_scenes>
  <scene>
    <instance_visual_scene url="#Scene"/>
  </scene>
</COLLADA>